<?xml version="1.0" encoding="utf-8"?>
<!-- Generator: Fusion 360, Shaper Origin Export Add-In, Version 1.6.3  -->
<svg xmlns="http://www.w3.org/2000/svg" xmlns:xlink="http://www.w3.org/1999/xlink" xmlns:shaper="http://www.shapertools.com/namespaces/shaper" shaper:fusionaddin="version:1.6.3" width="44.753cm" height="84cm" version="1.1" x="0cm" y="0cm" viewBox="0 0 44.753 84" enable-background="new 0 0 44.753 84" xml:space="preserve"><path d="M-37.2201528,-60.0341856 A31.9644723,31.9644723 80.5331549 0,0 -10.999995,-86.0054677 A3,3 180.1044251 0,1 -5,-86 L-5,-8 A3,3 0 0,1 -8,-5 L-46.753,-5 A3,3 90 0,1 -49.753,-8 L-49.753,-45.2384714 A15,15 180 0,1 -37.2201528,-60.0341856z" transform="matrix(1,0,0,-1,49.753,-5)" fill="rgb(0,0,0)" shaper:cutDepth="0" stroke-linecap="round" stroke-linejoin="round" /><path d="M-20.7442608,-22.4440426 A0.1080342,0.1080342 66.6183002 0,0 -20.679102,-22.5426234 L-20.679102,-22.5426234 -20.6773581,-23.0953996 -20.6772961,-23.6482629 -20.6777412,-24.2011526 -20.6775186,-24.7540077 -20.6775186,-24.7540077 -20.6791251,-24.763907 -20.6795946,-24.7746878 -20.6792245,-24.7861586 -20.6783124,-24.7981282 -20.6760528,-24.8227981 -20.6753004,-24.8351157 -20.6751963,-24.8471666 -20.6760382,-24.8587595 -20.6781237,-24.8697029 -20.6817502,-24.8798055 -20.6872155,-24.8888759 -20.6907306,-24.8929643 -20.694817,-24.8967229 -20.6995118,-24.9001277 -20.7048523,-24.903155 -20.7108757,-24.9057806 -20.7176191,-24.9079808 -20.7251198,-24.9097316 -20.733415,-24.9110091 -20.733415,-24.9110091 -20.8791648,-24.9104278 -21.0250359,-24.9105489 -21.3169056,-24.9115307 -21.4627864,-24.9117075 -21.6085526,-24.9112191 -21.7541452,-24.9097234 -21.8995053,-24.9068787 -21.8995053,-24.9068787 -21.9128803,-24.8938561 -21.9253824,-24.8802698 -21.9371095,-24.8661833 -21.94816,-24.85166 -21.9686233,-24.8215568 -21.9875576,-24.790468 -22.0239794,-24.7273641 -22.0430372,-24.6963644 -22.0637065,-24.6664097 -22.0637065,-24.6664097 -22.080165,-24.6607015 -22.0973492,-24.6550636 -22.133567,-24.6439682 -22.171704,-24.6330614 -22.2111045,-24.6222808 -22.2910719,-24.6008498 -22.3303271,-24.5900749 -22.3682222,-24.5791776 -22.3682222,-24.5791776 -22.3785231,-24.5853769 -22.3889079,-24.5924641 -22.399394,-24.6003075 -22.4099985,-24.608775 -22.4316318,-24.6270547 -22.4539459,-24.6462473 -22.4770787,-24.6652973 -22.5011681,-24.683149 -22.5136146,-24.6912955 -22.526352,-24.6987466 -22.5393976,-24.7053703 -22.5527685,-24.7110346 -22.5527685,-24.7110346 -22.9943948,-24.7120187 -23.4360734,-24.7120917 -24.3194457,-24.7119744 -24.3194457,-24.7119744 -24.3301349,-24.7139688 -24.3404475,-24.7152173 -24.350401,-24.715756 -24.3600129,-24.7156206 -24.3693008,-24.7148472 -24.3782821,-24.7134715 -24.3953954,-24.7090573 -24.411493,-24.7026651 -24.4267151,-24.6945821 -24.441202,-24.6850957 -24.455094,-24.6744931 -24.4685313,-24.6630615 -24.4816541,-24.6510881 -24.5075173,-24.6266649 -24.5205381,-24.6147896 -24.5338055,-24.6035214 -24.5474597,-24.5931477 -24.5616408,-24.5839556 -24.5616408,-24.5839556 -24.5783877,-24.5878588 -24.5962233,-24.5920748 -24.6149914,-24.5965723 -24.6345358,-24.6013199 -24.6753282,-24.6114405 -24.7173503,-24.622186 -24.759352,-24.6333061 -24.800083,-24.6445504 -24.8195814,-24.6501408 -24.8382933,-24.6556684 -24.8560624,-24.6611018 -24.8727325,-24.6664097 -24.8727325,-24.6664097 -24.8931955,-24.6964448 -24.9122262,-24.7273762 -24.9488653,-24.7901368 -24.9679108,-24.8210707 -24.9883985,-24.8511102 -24.9994077,-24.8656546 -25.0110468,-24.8798076 -25.0234058,-24.893513 -25.0365744,-24.9067151 -25.0365744,-24.9067151 -25.1628081,-24.9096525 -25.2892263,-24.9112024 -25.4157824,-24.9117157 -25.5424297,-24.911543 -25.7958114,-24.9105429 -25.9224524,-24.9104171 -26.0489981,-24.9110085 -26.0489981,-24.9110085 -26.0617979,-24.9094225 -26.0753786,-24.9088198 -26.0895785,-24.9089766 -26.1042359,-24.9096694 -26.1342768,-24.9117681 -26.1642079,-24.9133268 -26.1787282,-24.9133445 -26.1927361,-24.9125564 -26.2060699,-24.9107387 -26.2185681,-24.9076678 -26.2300689,-24.9031201 -26.2404108,-24.8968719 -26.2450965,-24.8930402 -26.2494319,-24.8886996 -26.2533968,-24.883822 -26.2569708,-24.8783796 -26.2569708,-24.8783796 -26.2583081,-24.57991 -26.2590129,-24.2814076 -26.259165,-23.6843374 -26.2587075,-23.0872357 -26.2589209,-22.4901688 -26.2589209,-22.4901688 -26.2586924,-22.484951 -26.2576813,-22.4799442 -26.2559411,-22.4751727 -26.2535249,-22.470661 -26.2504864,-22.4664334 -26.2468788,-22.4625141 -26.2381699,-22.4556984 -26.2278254,-22.4504085 -26.2162724,-22.4468395 -26.2039379,-22.4451861 -26.1912489,-22.4456431 -26.1912489,-22.4456431 -26.0469234,-22.446246 -25.9025009,-22.4461203 -25.613554,-22.4451023 -25.4691239,-22.4449198 -25.3247857,-22.4454281 -25.1805866,-22.446982 -25.0365736,-22.4499364 -25.0365736,-22.4499364 -25.0232764,-22.4630599 -25.0108343,-22.4767145 -24.9991515,-22.4908408 -24.9881321,-22.5053789 -24.9676996,-22.5354521 -24.9487698,-22.5664568 -24.9123489,-22.6293508 -24.8933235,-22.6602854 -24.8727317,-22.6902418 -24.8727317,-22.6902418 -24.8562709,-22.6959431 -24.8390843,-22.7015736 -24.8028618,-22.7126537 -24.7647201,-22.7235444 -24.7253152,-22.7343083 -24.6453388,-22.7557053 -24.6060791,-22.7664635 -24.5681795,-22.7773447 -24.5681795,-22.7773447 -24.5578479,-22.7712691 -24.5474497,-22.7642429 -24.5369643,-22.7564106 -24.526371,-22.7479163 -24.5047782,-22.7295188 -24.4825063,-22.7102046 -24.4593902,-22.6911279 -24.4352647,-22.6734427 -24.4227718,-22.6654826 -24.4099648,-22.6583032 -24.3968228,-22.6520487 -24.3833253,-22.6468635 -24.3833253,-22.6468635 -24.1562763,-22.6453634 -23.9291309,-22.6445728 -23.4746486,-22.6444024 -23.0200735,-22.6449158 -22.5656007,-22.6446765 -22.5656007,-22.6446765 -22.5505219,-22.6483442 -22.5362819,-22.6532476 -22.5227898,-22.6592511 -22.5099543,-22.6662192 -22.4976842,-22.6740164 -22.4858886,-22.6825071 -22.463356,-22.701027 -22.4199738,-22.7404255 -22.3976662,-22.7591355 -22.3860392,-22.7677689 -22.3739754,-22.7757404 -22.3739754,-22.7757404 -22.3572675,-22.7716731 -22.339474,-22.7672824 -22.3207507,-22.7626012 -22.3012538,-22.7576622 -22.2605625,-22.7471422 -22.2186477,-22.7359853 -22.1767571,-22.724454 -22.1361382,-22.712811 -22.1166956,-22.7070297 -22.0980389,-22.701319 -22.0803238,-22.6957116 -22.0637065,-22.6902405 -22.0637065,-22.6902405 -22.0431649,-22.6602047 -22.0241019,-22.6292084 -21.9874638,-22.5662422 -21.9684148,-22.5352263 -21.9478967,-22.5051579 -21.9368565,-22.4906281 -21.9251726,-22.476514 -21.9127529,-22.4628753 -21.8995053,-22.4497716 -21.8995053,-22.4497716 -21.7733975,-22.4469339 -21.6470579,-22.4454401 -21.5205451,-22.4449498 -21.393918,-22.4451227 -21.1405557,-22.4460972 -21.013938,-22.4462181 -20.887441,-22.4456412 -20.887441,-22.4456412 -20.871381,-22.447457 -20.8541722,-22.447834 -20.8361265,-22.4472036 -20.8175558,-22.4459973 -20.7800869,-22.4435829 -20.7618126,-22.4432377 -20.7442608,-22.4440426z" transform="matrix(1,0,0,-1,49.753,-5)" fill="rgb(255,255,255)" stroke="rgb(0,0,0)" stroke-width="0.0010cm" stroke-linecap="round" stroke-linejoin="round" shaper:cutDepth="0" /></svg>