<?xml version="1.0" encoding="UTF-8"?>
<svg xmlns="http://www.w3.org/2000/svg" width="800.000" height="600.000" viewBox="0.0 0.0 800.000 600.000" version="1.1">
<path d="M454.4 265.63L454.18 264.62"
fill="none" stroke="black" stroke-width="0.5"/>
<path d="M454.35 334.89L454.4 334.37"
fill="none" stroke="black" stroke-width="0.5"/>
<path d="M454.18 335.38L454.35 334.89"
fill="none" stroke="black" stroke-width="0.5"/>
<path d="M453.55 336.19L454.18 335.38"
fill="none" stroke="black" stroke-width="0.5"/>
<path d="M447.31 341.39L453.55 336.19"
fill="none" stroke="black" stroke-width="0.5"/>
<path d="M447.31 353.22L447.31 341.39Z"
fill="none" stroke="black" stroke-width="0.5"/>
<path d="M457.83 358.48L447.31 353.22"
fill="none" stroke="black" stroke-width="0.5"/>
<path d="M458.27 358.76L457.83 358.48"
fill="none" stroke="black" stroke-width="0.5"/>
<path d="M459.13 360.6L459.08 360.08"
fill="none" stroke="black" stroke-width="0.5"/>
<path d="M459.13 404.08L459.13 360.6Z"
fill="none" stroke="black" stroke-width="0.5"/>
<path d="M459.05 404.69L459.13 404.08"
fill="none" stroke="black" stroke-width="0.5"/>
<path d="M458.82 405.26L459.05 404.69"
fill="none" stroke="black" stroke-width="0.5"/>
<path d="M458.44 405.75L458.82 405.26"
fill="none" stroke="black" stroke-width="0.5"/>
<path d="M457.95 406.13L458.44 405.75"
fill="none" stroke="black" stroke-width="0.5"/>
<path d="M457.38 406.36L457.95 406.13"
fill="none" stroke="black" stroke-width="0.5"/>
<path d="M456.77 406.44L457.38 406.36"
fill="none" stroke="black" stroke-width="0.5"/>
<path d="M343.23 406.44L456.77 406.44"
fill="none" stroke="black" stroke-width="0.5"/>
<path d="M340.87 360.6L340.87 404.08Z"
fill="none" stroke="black" stroke-width="0.5"/>
<path d="M340.92 360.08L340.87 360.6"
fill="none" stroke="black" stroke-width="0.5"/>
<path d="M341.09 359.58L340.92 360.08"
fill="none" stroke="black" stroke-width="0.5"/>
<path d="M341.37 359.14L341.09 359.58"
fill="none" stroke="black" stroke-width="0.5"/>
<path d="M341.73 358.76L341.37 359.14"
fill="none" stroke="black" stroke-width="0.5"/>
<path d="M340.87 195.92L340.87 239.4Z"
fill="none" stroke="black" stroke-width="0.5"/>
<path d="M456.77 193.56L343.23 193.56"
fill="none" stroke="black" stroke-width="0.5"/>
<path d="M457.38 193.64L456.77 193.56"
fill="none" stroke="black" stroke-width="0.5"/>
<path d="M457.95 193.87L457.38 193.64"
fill="none" stroke="black" stroke-width="0.5"/>
<path d="M458.44 194.25L457.95 193.87"
fill="none" stroke="black" stroke-width="0.5"/>
<path d="M458.82 194.74L458.44 194.25"
fill="none" stroke="black" stroke-width="0.5"/>
<path d="M459.05 195.31L458.82 194.74"
fill="none" stroke="black" stroke-width="0.5"/>
<path d="M459.13 195.92L459.05 195.31"
fill="none" stroke="black" stroke-width="0.5"/>
<path d="M459.13 239.4L459.13 195.92Z"
fill="none" stroke="black" stroke-width="0.5"/>
<path d="M458.91 240.42L459.13 239.4"
fill="none" stroke="black" stroke-width="0.5"/>
<path d="M458.63 240.86L458.91 240.42"
fill="none" stroke="black" stroke-width="0.5"/>
<path d="M457.83 241.52L458.63 240.86"
fill="none" stroke="black" stroke-width="0.5"/>
<path d="M447.31 246.78L457.83 241.52"
fill="none" stroke="black" stroke-width="0.5"/>
<path d="M447.31 258.61L447.31 246.78Z"
fill="none" stroke="black" stroke-width="0.5"/>
<path d="M453.55 263.81L447.31 258.61"
fill="none" stroke="black" stroke-width="0.5"/>
<path d="M454.18 264.62L453.55 263.81"
fill="none" stroke="black" stroke-width="0.5"/>
<path d="M342.62 193.64L343.23 193.56"
fill="none" stroke="black" stroke-width="0.5"/>
<path d="M342.05 193.87L342.62 193.64"
fill="none" stroke="black" stroke-width="0.5"/>
<path d="M341.56 194.25L342.05 193.87"
fill="none" stroke="black" stroke-width="0.5"/>
<path d="M341.18 194.74L341.56 194.25"
fill="none" stroke="black" stroke-width="0.5"/>
<path d="M340.95 195.31L341.18 194.74"
fill="none" stroke="black" stroke-width="0.5"/>
<path d="M340.87 195.92L340.95 195.31"
fill="none" stroke="black" stroke-width="0.5"/>
<path d="M341.09 240.42L340.87 239.4"
fill="none" stroke="black" stroke-width="0.5"/>
<path d="M341.37 240.86L341.09 240.42"
fill="none" stroke="black" stroke-width="0.5"/>
<path d="M342.17 241.52L341.37 240.86"
fill="none" stroke="black" stroke-width="0.5"/>
<path d="M352.69 246.78L342.17 241.52"
fill="none" stroke="black" stroke-width="0.5"/>
<path d="M352.69 258.61L352.69 246.78Z"
fill="none" stroke="black" stroke-width="0.5"/>
<path d="M346.45 263.81L352.69 258.61"
fill="none" stroke="black" stroke-width="0.5"/>
<path d="M345.82 264.62L346.45 263.81"
fill="none" stroke="black" stroke-width="0.5"/>
<path d="M345.6 265.63L345.82 264.62"
fill="none" stroke="black" stroke-width="0.5"/>
<path d="M345.65 334.89L345.6 334.37"
fill="none" stroke="black" stroke-width="0.5"/>
<path d="M345.82 335.38L345.65 334.89"
fill="none" stroke="black" stroke-width="0.5"/>
<path d="M346.45 336.19L345.82 335.38"
fill="none" stroke="black" stroke-width="0.5"/>
<path d="M352.69 341.39L346.45 336.19"
fill="none" stroke="black" stroke-width="0.5"/>
<path d="M352.69 353.22L352.69 341.39Z"
fill="none" stroke="black" stroke-width="0.5"/>
<path d="M342.17 358.48L352.69 353.22"
fill="none" stroke="black" stroke-width="0.5"/>
<path d="M341.73 358.76L342.17 358.48"
fill="none" stroke="black" stroke-width="0.5"/>
<path d="M340.95 404.69L340.87 404.08"
fill="none" stroke="black" stroke-width="0.5"/>
<path d="M341.18 405.26L340.95 404.69"
fill="none" stroke="black" stroke-width="0.5"/>
<path d="M341.56 405.75L341.18 405.26"
fill="none" stroke="black" stroke-width="0.5"/>
<path d="M342.05 406.13L341.56 405.75"
fill="none" stroke="black" stroke-width="0.5"/>
<path d="M342.62 406.36L342.05 406.13"
fill="none" stroke="black" stroke-width="0.5"/>
<path d="M343.23 406.44L342.62 406.36"
fill="none" stroke="black" stroke-width="0.5"/>
<path d="M458.91 359.58L459.08 360.08"
fill="none" stroke="black" stroke-width="0.5"/>
<path d="M458.63 359.14L458.91 359.58"
fill="none" stroke="black" stroke-width="0.5"/>
<path d="M458.27 358.76L458.63 359.14"
fill="none" stroke="black" stroke-width="0.5"/>
<path d="M454.4 401.71L454.4 362.06Z"
fill="none" stroke="black" stroke-width="0.5"/>
<path d="M345.6 401.71L454.4 401.71"
fill="none" stroke="black" stroke-width="0.5"/>
<path d="M345.6 362.06L345.6 401.71Z"
fill="none" stroke="black" stroke-width="0.5"/>
<path d="M357.42 356.14L345.6 362.06"
fill="none" stroke="black" stroke-width="0.5"/>
<path d="M357.42 339.18L357.42 356.14Z"
fill="none" stroke="black" stroke-width="0.5"/>
<path d="M350.33 333.26L357.42 339.18"
fill="none" stroke="black" stroke-width="0.5"/>
<path d="M357.42 260.82L350.33 266.74"
fill="none" stroke="black" stroke-width="0.5"/>
<path d="M357.42 243.86L357.42 260.82Z"
fill="none" stroke="black" stroke-width="0.5"/>
<path d="M345.6 237.94L357.42 243.86"
fill="none" stroke="black" stroke-width="0.5"/>
<path d="M345.6 198.29L345.6 237.94Z"
fill="none" stroke="black" stroke-width="0.5"/>
<path d="M454.4 198.29L345.6 198.29"
fill="none" stroke="black" stroke-width="0.5"/>
<path d="M454.4 237.94L454.4 198.29Z"
fill="none" stroke="black" stroke-width="0.5"/>
<path d="M442.58 243.86L454.4 237.94"
fill="none" stroke="black" stroke-width="0.5"/>
<path d="M442.58 260.82L442.58 243.86Z"
fill="none" stroke="black" stroke-width="0.5"/>
<path d="M449.67 266.74L442.58 260.82"
fill="none" stroke="black" stroke-width="0.5"/>
<path d="M442.58 339.18L449.67 333.26"
fill="none" stroke="black" stroke-width="0.5"/>
<path d="M442.58 356.14L442.58 339.18Z"
fill="none" stroke="black" stroke-width="0.5"/>
<path d="M454.4 362.06L442.58 356.14"
fill="none" stroke="black" stroke-width="0.5"/>
<path d="M350.33 266.74L350.33 333.26Z"
fill="none" stroke="black" stroke-width="0.5"/>
<path d="M449.67 266.74L449.67 333.26Z"
fill="none" stroke="black" stroke-width="0.5"/>
<path d="M345.6 265.63L345.6 334.37Z"
fill="none" stroke="black" stroke-width="0.5"/>
<path d="M454.4 265.63L454.4 334.37Z"
fill="none" stroke="black" stroke-width="0.5"/>
</svg>
