<?xml version="1.0" encoding="UTF-8" standalone="no"?>
<svg
   width="800"
   height="600"
   viewBox="0 0 800 600"
   version="1.1"
   id="svg182"
   sodipodi:docname="elvarli-pole-single-plain-v7.svg"
   inkscape:version="1.2 (dc2aeda, 2022-05-15)"
   xmlns:inkscape="http://www.inkscape.org/namespaces/inkscape"
   xmlns:sodipodi="http://sodipodi.sourceforge.net/DTD/sodipodi-0.dtd"
   xmlns="http://www.w3.org/2000/svg"
   xmlns:svg="http://www.w3.org/2000/svg">
  <path
     id="path180"
     style="color:#000000;fill:#000000;-inkscape-stroke:none"
     class="UnoptimicedTransforms"
     d="m 343.23047,193.31055 c -0.8089,0.11799 -2.05159,0.61199 -2.46496,1.78933 -0.22642,1.4106 -0.12798,5.80565 -0.14645,8.63462 0,11.88866 0,23.77732 0,35.66598 0.17497,1.32832 0.8898,2.20055 2.75003,2.99893 3.02343,1.51142 6.04685,3.02285 9.07028,4.53428 -0.2562,3.89566 0.50879,8.26965 -0.37521,11.87126 -2.15718,1.91637 -5.05198,3.9285 -6.44119,5.66195 -0.4736,1.59808 -0.20359,5.59653 -0.27344,8.49014 0,20.47073 0,40.94146 0,61.41219 0.057,0.82859 0.69927,2.05125 2.44027,3.26434 2.04581,2.03597 5.72647,3.30617 4.64954,6.8048 -0.29994,2.85347 0.59504,6.4455 -0.43686,8.84656 -3.35962,1.69124 -7.79629,3.85598 -10.40689,5.26403 -0.56401,0.61053 -0.9959,1.46877 -0.97657,2.53919 0,14.33068 0,28.66137 0,42.99206 0.12293,0.82499 0.61443,2.04494 1.79075,2.46431 1.39406,0.22134 5.80098,0.12881 8.63515,0.14515 35.24152,0 70.48305,0 105.72457,0 0.8089,-0.11799 2.05159,-0.61199 2.46496,-1.78933 0.22642,-1.4106 0.12798,-5.80565 0.14645,-8.63462 0,-11.88866 0,-23.77732 0,-35.66598 -0.13079,-0.71964 -0.42462,-1.72849 -1.38877,-2.31276 -1.49463,-0.71982 -4.8264,-2.44439 -7.04045,-3.52521 -3.91374,-0.63553 -3.62196,-3.87044 -3.3911,-7.06769 0.2682,-2.91323 -1.14188,-6.61257 2.25128,-8.06209 1.90269,-1.70648 4.29524,-3.19328 4.77411,-4.65923 0.0153,-0.84072 0.11279,-4.65707 0.0644,-6.9528 0,-20.79634 0,-41.59267 0,-62.38901 -0.0675,-1.45768 -1.60074,-2.62556 -3.56594,-4.20227 -2.92626,-1.62356 -4.25095,-3.99729 -3.5239,-7.33204 0.65205,-2.63583 -1.59855,-7.06576 1.74744,-8.0365 3.124,-1.69109 7.18154,-3.30274 9.48107,-5.00731 0.67759,-0.81338 0.62843,-3.14027 0.5918,-5.5596 0,-13.19107 0,-26.38215 0,-39.57322 -0.12293,-0.82499 -0.61443,-2.04494 -1.79075,-2.46431 -1.39406,-0.22134 -5.80098,-0.12881 -8.63515,-0.14515 -35.2415,0 -70.48299,0 -105.72449,0 z m 0.0156,0.5 c 38.02378,0.0495 76.06044,-0.099 114.07618,0.0742 2.92163,1.36859 1.01031,5.40617 1.55857,7.9136 -0.13589,12.83414 0.27233,25.72593 -0.20508,38.5239 -3.2944,2.76067 -7.72881,4.06104 -11.47851,6.23437 -0.25342,3.42367 -0.16802,8.88334 -0.0469,12.24609 2.44859,2.79706 7.7754,4.32784 7,8.80714 -0.03,22.40735 0.0599,44.8202 -0.0449,67.22411 -1.60613,2.64594 -5.36691,4.58284 -7.04492,6.55664 0.0911,3.91515 -0.18244,8.59896 0.13672,12.05274 3.72741,2.20562 8.24598,3.43851 11.48632,6.24805 0.46279,14.73587 0.064,29.59002 0.19729,44.37109 -0.52623,3.53309 -5.10602,1.66538 -7.49939,2.12693 -36.23297,-0.0495 -72.47881,0.099 -108.70374,-0.0742 -2.92163,-1.36859 -1.01031,-5.40617 -1.55857,-7.9136 0.13237,-12.82753 -0.26419,-25.72785 0.19729,-38.51022 3.265,-2.77868 7.74188,-4.06375 11.48632,-6.24805 0.25342,-3.42367 0.16802,-8.88334 0.0469,-12.24609 -2.18911,-2.36189 -5.90817,-3.76182 -6.99998,-6.85157 0.0697,-23.05174 -0.13942,-46.13365 0.10446,-69.16655 1.47468,-2.6837 5.3454,-4.58569 6.98538,-6.56977 -0.0911,-3.91514 0.18244,-8.59895 -0.13672,-12.05272 -3.73317,-2.19486 -8.208,-3.44258 -11.47851,-6.23437 -0.48059,-14.60191 -0.0668,-29.29857 -0.20508,-43.93674 -0.20091,-1.29108 0.77278,-2.61165 2.12687,-2.57498 z"
     transform="matrix(0.73240954,0,0,-0.91940815,91.144825,460.52867)" />
  <sodipodi:namedview
     id="namedview74"
     pagecolor="#ffffff"
     bordercolor="#000000"
     borderopacity="0.25"
     inkscape:showpageshadow="2"
     inkscape:pageopacity="0.0"
     inkscape:pagecheckerboard="0"
     inkscape:deskcolor="#d1d1d1"
     showgrid="false"
     inkscape:zoom="1.715586"
     inkscape:cx="477.67935"
     inkscape:cy="259.96948"
     inkscape:window-width="1728"
     inkscape:window-height="984"
     inkscape:window-x="0"
     inkscape:window-y="38"
     inkscape:window-maximized="0"
     inkscape:current-layer="svg182" />
  <defs
     id="defs186" />
</svg>
