<?xml version="1.0" encoding="UTF-8" standalone="no"?>
<svg
   width="800"
   height="600"
   viewBox="0 0 800 600"
   version="1.1"
   id="svg182"
   sodipodi:docname="elvarli-pole-single.svg"
   inkscape:version="1.2 (dc2aeda, 2022-05-15)"
   inkscape:export-filename="elvarli-pole-single-plain.svg"
   inkscape:export-xdpi="96"
   inkscape:export-ydpi="96"
   xmlns:inkscape="http://www.inkscape.org/namespaces/inkscape"
   xmlns:sodipodi="http://sodipodi.sourceforge.net/DTD/sodipodi-0.dtd"
   xmlns="http://www.w3.org/2000/svg"
   xmlns:svg="http://www.w3.org/2000/svg">
  <sodipodi:namedview
     id="namedview74"
     pagecolor="#ffffff"
     bordercolor="#000000"
     borderopacity="0.25"
     inkscape:showpageshadow="2"
     inkscape:pageopacity="0.0"
     inkscape:pagecheckerboard="0"
     inkscape:deskcolor="#d1d1d1"
     showgrid="false"
     inkscape:zoom="1.715586"
     inkscape:cx="473.59911"
     inkscape:cy="259.09514"
     inkscape:window-width="1728"
     inkscape:window-height="965"
     inkscape:window-x="0"
     inkscape:window-y="38"
     inkscape:window-maximized="0"
     inkscape:current-layer="svg182" />
  <defs
     id="defs186" />
  <path
     id="path180"
     style="color:#000000;fill:#000000;-inkscape-stroke:none"
     d="m 454.15039,265.63086 v 68.73828 h 0.5 v -68.73828 z m -108.80078,0 v 68.73828 h 0.5 v -68.73828 z m 113.10156,92.95703 -0.36328,0.34375 0.36133,0.38086 0.36133,-0.34375 z m 0.39063,0.41797 -0.42188,0.26758 0.2793,0.4414 0.42187,-0.26953 z m 0.30468,0.49414 -0.47265,0.16016 0.16992,0.5 L 459.31641,360 Z m -116.49414,46.61133 -0.0644,0.49609 0.60938,0.0801 0.0645,-0.49609 z m -0.50976,-0.21289 -0.18555,0.46289 0.57031,0.23047 0.18555,-0.46289 z m -0.42969,-0.34571 -0.30664,0.39454 0.49023,0.38085 0.30664,-0.39648 z m -0.33594,-0.44531 -0.39453,0.30664 0.38086,0.48828 0.39453,-0.30468 z m -0.19531,-0.51172 -0.46289,0.1875 0.22852,0.57032 0.46484,-0.1875 z m -0.0645,-0.54883 -0.49414,0.0664 0.0781,0.60938 0.4961,-0.0645 z m 0.91797,-45.77734 -0.43946,0.2793 0.26758,0.42187 0.44141,-0.27929 z m 10.54296,-5.27344 -10.51953,5.25977 0.22266,0.44726 10.52148,-5.25976 z m -0.13867,-11.60547 v 11.83008 h 0.5 v -11.83008 z m -5.83008,-5.39257 -0.32031,0.38476 6.24024,5.19922 0.32031,-0.38476 z m -0.59179,-0.77149 -0.39453,0.30664 0.6289,0.81055 0.39453,-0.30664 z m -0.13086,-0.41797 -0.47266,0.16407 0.16992,0.49023 0.47266,-0.16406 z m -0.0371,-0.46289 -0.49805,0.0488 0.0488,0.51953 0.49805,-0.0488 z m -0.27344,-69.77929 -0.2207,1.00976 0.48828,0.10742 0.2207,-1.00976 z m 0.67578,-0.91016 -0.6289,0.81055 0.39453,0.30664 0.6289,-0.81055 z m 6.27735,-5.23828 -6.24024,5.19922 0.32031,0.38476 6.24024,-5.19922 z m -0.0898,-11.63867 v 11.83007 h 0.5 V 246.7793 Z m -10.1582,-5.48243 -0.22266,0.44727 10.51953,5.25977 0.22461,-0.44727 z m -0.75195,-0.6289 -0.31836,0.38476 0.80078,0.66016 0.3164,-0.38477 z m -0.22852,-0.38281 -0.42187,0.26953 0.27929,0.43945 0.42188,-0.26758 z m -0.18555,-0.9375 -0.49023,0.10546 0.2207,1.01954 0.48828,-0.10547 z m -0.41406,-44.07032 -0.0781,0.60938 0.49414,0.0664 0.0801,-0.61132 z m 0.2461,-0.63086 -0.22852,0.57032 0.46289,0.1875 0.23047,-0.57032 z m 0.41601,-0.54882 -0.38086,0.48828 0.39453,0.30664 0.38086,-0.49024 z m 0.5332,-0.42579 -0.49023,0.38086 0.30664,0.39454 0.49023,-0.37891 z m 0.63086,-0.26367 -0.57031,0.23047 0.18555,0.46289 0.57031,-0.23047 z m 0.66993,-0.0957 -0.60938,0.0801 0.0644,0.49609 0.60938,-0.0801 z m 110.55078,70.34375 -0.39453,0.30664 0.6289,0.81055 0.39453,-0.30664 z m -6.27735,-5.23828 -0.32031,0.38476 6.24023,5.19922 0.32032,-0.38476 z m -0.41015,-11.63867 v 11.83007 h 0.5 V 246.7793 Z m 10.6582,-5.48243 -10.52148,5.25977 0.2246,0.44727 10.51954,-5.25977 z m 0.75195,-0.6289 -0.79883,0.66015 0.31641,0.38477 0.80078,-0.66016 z m 0.22852,-0.38281 -0.2793,0.4414 0.42188,0.26758 0.27929,-0.43945 z m 0.18555,-0.9375 -0.21875,1.01953 0.48828,0.10547 0.2207,-1.01954 z m -0.004,-43.42774 v 43.48047 h 0.5 v -43.48047 z m 0.41797,-0.64258 -0.4961,0.0645 0.0801,0.61132 0.49414,-0.0664 z m -0.2461,-0.63086 -0.46484,0.1875 0.23047,0.57032 0.46289,-0.1875 z m -0.41601,-0.54882 -0.39453,0.30468 0.38086,0.49024 0.39453,-0.30664 z m -0.5332,-0.42579 -0.30665,0.39649 0.49024,0.37891 0.30664,-0.39454 z m -0.63086,-0.26367 -0.18555,0.46289 0.57031,0.23047 0.18555,-0.46289 z m -0.66993,-0.0957 -0.0645,0.49609 0.60938,0.0801 0.0644,-0.49609 z m -113.57226,-0.002 v 0.5 h 113.53906 v -0.5 z m -2.61133,2.60937 v 43.48047 h 0.5 v -43.48047 z m 0.92969,162.66797 -0.35938,0.38086 0.36133,0.34375 0.36133,-0.38086 z m -0.39063,0.41797 -0.27929,0.43945 0.42187,0.26953 0.2793,-0.4414 z m -0.30468,0.49414 -0.16993,0.5 0.47266,0.16016 0.16992,-0.5 z m -0.18165,0.55664 -0.0508,0.51953 0.49805,0.0469 0.0488,-0.51953 z m -0.0527,0.54297 v 43.48047 h 0.5 v -43.48047 z m 2.61133,45.58984 v 0.5 h 113.53906 v -0.5 z m 114.11719,-0.0781 -0.60938,0.0801 0.0645,0.49609 0.60938,-0.0801 z m 0.50976,-0.21289 -0.57031,0.23047 0.18555,0.46289 0.57031,-0.23047 z m 0.42969,-0.34571 -0.49024,0.37891 0.30665,0.39648 0.49023,-0.38085 z m 0.33594,-0.44531 -0.38086,0.49024 0.39453,0.30468 0.38086,-0.48828 z m 0.19531,-0.51172 -0.23047,0.57032 0.46484,0.1875 0.22852,-0.57032 z m 0.0645,-0.54883 -0.0801,0.61133 0.4961,0.0645 0.0781,-0.60938 z m -0.002,-43.44726 v 43.48047 h 0.5 v -43.48047 z m 0.44726,-0.54297 -0.49609,0.0469 0.0488,0.51953 0.49805,-0.0469 z m -1.36328,-1.78711 -0.26953,0.42188 0.44141,0.27929 0.26758,-0.42187 z m -10.54297,-5.27344 -0.2246,0.44727 10.52148,5.25976 0.22266,-0.44726 z m -0.36132,-11.60547 v 11.83008 h 0.5 v -11.83008 z m 6.33007,-5.39257 -6.24023,5.19922 0.32031,0.38476 6.24024,-5.19922 z m 0.5918,-0.77149 -0.6289,0.81055 0.39453,0.30664 0.6289,-0.81055 z m 0.13086,-0.41797 -0.16992,0.49024 0.47266,0.16406 0.16992,-0.49023 z m 0.0371,-0.46289 -0.0488,0.51953 0.49805,0.0488 0.0488,-0.51953 z m 0.27344,-69.77929 -0.48828,0.10742 0.2207,1.00976 0.48828,-0.10742 z" />
</svg>
