<?xml version="1.0" encoding="UTF-8" standalone="no"?>
<svg
   width="800"
   height="600"
   viewBox="0 0 800 600"
   version="1.1"
   id="svg182"
   xmlns="http://www.w3.org/2000/svg"
   xmlns:svg="http://www.w3.org/2000/svg">
  <defs
     id="defs186" />
  <path
     d="m 454.4,265.63 -0.22,-1.01 m 454.35,334.89 0.05,-0.52 m 454.18,335.38 0.17,-0.49 m 453.55,336.19 0.63,-0.81 m 447.31,341.39 6.24,-5.2 M 447.31,353.22 V 341.39 Z m 457.83,358.48 -10.52,-5.26 m 458.27,358.76 -0.44,-0.28 m 459.13,360.6 -0.05,-0.52 M 459.13,404.08 V 360.6 Z m 459.05,404.69 0.08,-0.61 m 458.82,405.26 0.23,-0.57 m 458.44,405.75 0.38,-0.49 m 457.95,406.13 0.49,-0.38 m 457.38,406.36 0.57,-0.23 m 456.77,406.44 0.61,-0.08 M 343.23,406.44 H 456.77 m 340.87,360.6 v 43.48 z m 340.92,360.08 -0.05,0.52 m 341.09,359.58 -0.17,0.5 m 341.37,359.14 -0.28,0.44 m 341.73,358.76 -0.36,0.38 M 340.87,195.92 V 239.4 Z M 456.77,193.56 H 343.23 m 457.38,193.64 -0.61,-0.08 m 457.95,193.87 -0.57,-0.23 m 458.44,194.25 -0.49,-0.38 m 458.82,194.74 -0.38,-0.49 m 459.05,195.31 -0.23,-0.57 m 459.13,195.92 -0.08,-0.61 M 459.13,239.4 V 195.92 Z m 458.91,240.42 0.22,-1.02 m 458.63,240.86 0.28,-0.44 m 457.83,241.52 0.8,-0.66 m 447.31,246.78 10.52,-5.26 M 447.31,258.61 V 246.78 Z m 453.55,263.81 -6.24,-5.2 m 454.18,264.62 -0.63,-0.81 m 342.62,193.64 0.61,-0.08 m 342.05,193.87 0.57,-0.23 m 341.56,194.25 0.49,-0.38 m 341.18,194.74 0.38,-0.49 m 340.95,195.31 0.23,-0.57 m 340.87,195.92 0.08,-0.61 m 341.09,240.42 -0.22,-1.02 m 341.37,240.86 -0.28,-0.44 m 342.17,241.52 -0.8,-0.66 m 352.69,246.78 -10.52,-5.26 M 352.69,258.61 V 246.78 Z m 346.45,263.81 6.24,-5.2 m 345.82,264.62 0.63,-0.81 m 345.6,265.63 0.22,-1.01 m 345.65,334.89 -0.05,-0.52 m 345.82,335.38 -0.17,-0.49 m 346.45,336.19 -0.63,-0.81 m 352.69,341.39 -6.24,-5.2 M 352.69,353.22 V 341.39 Z m 342.17,358.48 10.52,-5.26 m 341.73,358.76 0.44,-0.28 m 340.95,404.69 -0.08,-0.61 m 341.18,405.26 -0.23,-0.57 m 341.56,405.75 -0.38,-0.49 m 342.05,406.13 -0.49,-0.38 m 342.62,406.36 -0.57,-0.23 m 343.23,406.44 -0.61,-0.08 m 458.91,359.58 0.17,0.5 m 458.63,359.14 0.28,0.44 m 458.27,358.76 0.36,0.38 m 345.6,265.63 v 68.74 z m 454.4,265.63 v 68.74 z"
     fill="none"
     stroke="#000000"
     stroke-width="0.5"
     id="path180" />
</svg>
