<?xml version="1.0" encoding="utf-8"?>
<!-- Generator: Fusion 360, Shaper Origin Export Add-In, Version 1.6.3  -->
<svg xmlns="http://www.w3.org/2000/svg" xmlns:xlink="http://www.w3.org/1999/xlink" xmlns:shaper="http://www.shapertools.com/namespaces/shaper" shaper:fusionaddin="version:1.6.3" width="37.253cm" height="83.82cm" version="1.1" x="0cm" y="0cm" viewBox="0 0 37.253 83.82" enable-background="new 0 0 37.253 83.82" xml:space="preserve"><path d="M0,82.32 L0,3 A3,3 180 0,1 3,-0 L34.253,-0 A3,3 270 0,1 37.253,3 L37.253,50 A6.0406785,6.0406785 0 0,1 32.5963,55.88 A29.7464588,29.7464588 266.617541 0,0 4.76671,82.4762404 A1.5,1.5 5.9787864 0,1 3.2748692,83.82 L1.5,83.82 A1.5,1.5 90 0,1 -0,82.32z" transform="matrix(1,0,0,-1,0,83.82)" fill="rgb(0,0,0)" shaper:cutDepth="0" stroke-linecap="round" stroke-linejoin="round" /><path d="M16.1317431,17.5674681 A0.1,0.1 180.308544 0,1 16.1920562,17.4762185 L16.1920562,17.4762185 16.2083027,17.4754735 16.225218,17.475793 16.2599004,17.4780279 16.2770901,17.4791445 16.2937937,17.479728 16.3097228,17.479379 16.3245885,17.4776982 16.3245885,17.4776982 16.4416783,17.4782322 16.5588798,17.4781203 16.7934002,17.4772183 16.9106104,17.4770582 17.0277148,17.4775121 17.1446589,17.4788948 17.2613885,17.4815215 17.2613885,17.4815215 17.2736508,17.4936507 17.2851469,17.5062751 17.2959619,17.5193396 17.3061811,17.5327889 17.3251734,17.5606211 17.3428057,17.5893305 17.3767191,17.647614 17.3943645,17.6763052 17.4133785,17.7041074 17.4133785,17.7041074 17.4295502,17.7049527 17.4467354,17.7056526 17.4647868,17.706216 17.4835573,17.7066512 17.522666,17.7071719 17.5628835,17.7072836 17.6030314,17.7070551 17.6419318,17.7065551 17.660546,17.7062249 17.6784064,17.7058526 17.6953659,17.7054469 17.7112771,17.7050163 17.7112771,17.7050163 17.7217914,17.6967345 17.7318518,17.6878759 17.7509887,17.6689 17.7879728,17.6292184 17.8073318,17.6104006 17.8175588,17.6016606 17.8282768,17.5935237 17.8395802,17.5861081 17.8515636,17.5795317 17.8643215,17.5739125 17.8779482,17.5693686 17.8779482,17.5693686 18.2986232,17.5695901 18.7193928,17.5691149 19.1400766,17.5692726 19.3503298,17.5700043 19.5604939,17.5713929 19.5604939,17.5713929 19.5725168,17.5772732 19.5841248,17.5841105 19.5953487,17.5917733 19.6062193,17.6001303 19.6270237,17.6184018 19.646784,17.6378741 19.6657465,17.6574966 19.6841576,17.6762185 19.6932332,17.6849134 19.7022633,17.6929892 19.7112786,17.7003145 19.72031,17.7067579 19.72031,17.7067579 19.7568064,17.7063909 19.7944861,17.706469 19.8711161,17.7070905 19.9089267,17.7071993 19.9456416,17.7068834 19.9806907,17.7059257 19.9974127,17.7051381 20.0135045,17.7041086 20.0135045,17.7041086 20.0325649,17.6763799 20.0501755,17.6477459 20.0838878,17.5895291 20.1014099,17.5608301 20.1203228,17.5329934 20.1305228,17.5195364 20.1413368,17.5064607 20.1528536,17.4938215 20.1651619,17.481674 20.1651619,17.481674 20.298465,17.4789393 20.4319405,17.477501 20.5655447,17.4770305 20.6992339,17.4771994 20.9666927,17.4781417 21.1003749,17.4782581 21.2339673,17.4777 21.2339673,17.4777 21.2457126,17.4772769 21.2571298,17.4788074 21.2678237,17.482111 21.2773989,17.4870075 21.2854601,17.4933164 21.291612,17.5008574 21.2938485,17.5050336 21.2954593,17.5094502 21.2963952,17.5140846 21.2966067,17.5189144 21.2966067,17.5189144 21.2964092,18.0715791 21.2968326,18.6242761 21.2966919,19.1769439 21.2948017,19.7295208 21.2948017,19.7295208 21.2914934,19.7345585 21.2878234,19.7390733 21.2794731,19.7466378 21.2699004,19.7524214 21.2592548,19.7566309 21.2476861,19.7594734 21.2353439,19.7611559 21.2223777,19.7618855 21.2089372,19.761869 21.181232,19.7604262 21.1534252,19.7584836 21.1398578,19.7578424 21.126714,19.7576972 21.1141432,19.7582551 21.1022952,19.7597231 21.1022952,19.7597231 20.9851605,19.7591757 20.8679373,19.7592922 20.6333989,19.7602179 20.51617,19.7603777 20.3990256,19.7599027 20.2820087,19.758468 20.1651627,19.7557491 20.1651627,19.7557491 20.1529734,19.7435288 20.1415335,19.7308426 20.1307599,19.7177421 20.1205694,19.7042793 20.1016054,19.6764738 20.0839762,19.6478403 20.0500619,19.589747 20.0324464,19.561116 20.0135052,19.5333145 20.0135052,19.5333145 19.9973336,19.5324693 19.9801484,19.5317693 19.9620969,19.5312059 19.9433264,19.5307707 19.9042177,19.53025 19.8640002,19.5301383 19.8238522,19.5303668 19.7849519,19.5308668 19.7663378,19.531197 19.7484775,19.5315693 19.7315181,19.531975 19.715607,19.5324056 19.715607,19.5324056 19.7031853,19.5419135 19.6913352,19.5524737 19.6799068,19.5638313 19.6687497,19.5757313 19.646649,19.6001392 19.6238315,19.6236579 19.6117786,19.6344466 19.5990959,19.6442481 19.5856333,19.6528077 19.5712406,19.6598704 19.5557675,19.6651813 19.547579,19.6671002 19.539064,19.6684855 19.5302039,19.6693054 19.5209798,19.669528 19.511373,19.6691215 19.5013648,19.6680539 19.5013648,19.6680539 18.6836864,19.6681625 18.2748541,19.6680949 17.8660703,19.667184 17.8660703,19.667184 17.8541995,19.6608789 17.8427065,19.6537156 17.8315644,19.6458142 17.8207469,19.6372951 17.7999791,19.6188847 17.7801903,19.5994468 17.761168,19.5799437 17.7426995,19.5613375 17.7245722,19.5445905 17.71557,19.537215 17.7065734,19.5306651 17.7065734,19.5306651 17.6700768,19.5310321 17.632397,19.5309541 17.555767,19.5303326 17.5179563,19.5302238 17.4812414,19.5305396 17.4461923,19.5314974 17.4294704,19.532285 17.4133785,19.5333145 17.4133785,19.5333145 17.3942463,19.5610415 17.3766057,19.5897359 17.3428925,19.6481469 17.3253664,19.6769237 17.3064248,19.7047882 17.2961961,19.7182315 17.2853411,19.7312704 17.2737688,19.7438463 17.2613885,19.7559004 17.2613885,19.7559004 17.1268384,19.7585337 16.992073,19.7599181 16.8571471,19.7603702 16.722115,19.7602065 16.4519508,19.7592977 16.3169278,19.7591856 16.1820169,19.7597237 16.1820169,19.7597237 16.1743387,19.7585412 16.1673958,19.7569206 16.1611539,19.7548841 16.1555784,19.7524537 16.1506351,19.7496516 16.1462894,19.7464999 16.1425069,19.7430209 16.1392531,19.7392365 16.1341943,19.7308406 16.1308375,19.7214893 16.1289071,19.7113597 16.1281279,19.700629 16.1282242,19.6894743 16.1289206,19.6780728 16.1310122,19.6552375 16.1318564,19.644158 16.132199,19.6335402 16.1317645,19.6235612 16.1302774,19.614398 16.1302774,19.614398 16.1304834,19.1026572 16.1300715,18.5908844 16.1301289,18.0791359 16.1317431,17.5674681z" transform="matrix(1,0,0,-1,0,83.82)" fill="rgb(0,0,0)" shaper:cutDepth="0" stroke-linecap="round" stroke-linejoin="round" /><path d="M16.1920562,17.4762185 L16.1920562,17.4762185 16.2083027,17.4754735 16.225218,17.475793 16.2599004,17.4780279 16.2770901,17.4791445 16.2937937,17.479728 16.3097228,17.479379 16.3245885,17.4776982 16.3245885,17.4776982 16.4416783,17.4782322 16.5588798,17.4781203 16.7934002,17.4772183 16.9106104,17.4770582 17.0277148,17.4775121 17.1446589,17.4788948 17.2613885,17.4815215 17.2613885,17.4815215 17.2736508,17.4936507 17.2851469,17.5062751 17.2959619,17.5193396 17.3061811,17.5327889 17.3251734,17.5606211 17.3428057,17.5893305 17.3767191,17.647614 17.3943645,17.6763052 17.4133785,17.7041074 17.4133785,17.7041074 17.4295502,17.7049527 17.4467354,17.7056526 17.4647868,17.706216 17.4835573,17.7066512 17.522666,17.7071719 17.5628835,17.7072836 17.6030314,17.7070551 17.6419318,17.7065551 17.660546,17.7062249 17.6784064,17.7058526 17.6953659,17.7054469 17.7112771,17.7050163 17.7112771,17.7050163 17.7217914,17.6967345 17.7318518,17.6878759 17.7509887,17.6689 17.7879728,17.6292184 17.8073318,17.6104006 17.8175588,17.6016606 17.8282768,17.5935237 17.8395802,17.5861081 17.8515636,17.5795317 17.8643215,17.5739125 17.8779482,17.5693686 17.8779482,17.5693686 18.2986232,17.5695901 18.7193928,17.5691149 19.1400766,17.5692726 19.3503298,17.5700043 19.5604939,17.5713929 19.5604939,17.5713929 19.5725168,17.5772732 19.5841248,17.5841105 19.5953487,17.5917733 19.6062193,17.6001303 19.6270237,17.6184018 19.646784,17.6378741 19.6657465,17.6574966 19.6841576,17.6762185 19.6932332,17.6849134 19.7022633,17.6929892 19.7112786,17.7003145 19.72031,17.7067579 19.72031,17.7067579 19.7568064,17.7063909 19.7944861,17.706469 19.8711161,17.7070905 19.9089267,17.7071993 19.9456416,17.7068834 19.9806907,17.7059257 19.9974127,17.7051381 20.0135045,17.7041086 20.0135045,17.7041086 20.0325649,17.6763799 20.0501755,17.6477459 20.0838878,17.5895291 20.1014099,17.5608301 20.1203228,17.5329934 20.1305228,17.5195364 20.1413368,17.5064607 20.1528536,17.4938215 20.1651619,17.481674 20.1651619,17.481674 20.298465,17.4789393 20.4319405,17.477501 20.5655447,17.4770305 20.6992339,17.4771994 20.9666927,17.4781417 21.1003749,17.4782581 21.2339673,17.4777 21.2339673,17.4777 21.2457126,17.4772769 21.2571298,17.4788074 21.2678237,17.482111 21.2773989,17.4870075 21.2854601,17.4933164 21.291612,17.5008574 21.2938485,17.5050336 21.2954593,17.5094502 21.2963952,17.5140846 21.2966067,17.5189144 21.2966067,17.5189144 21.2964092,18.0715791 21.2968326,18.6242761 21.2966919,19.1769439 21.2948017,19.7295208 21.2948017,19.7295208 21.2914934,19.7345585 21.2878234,19.7390733 21.2794731,19.7466378 21.2699004,19.7524214 21.2592548,19.7566309 21.2476861,19.7594734 21.2353439,19.7611559 21.2223777,19.7618855 21.2089372,19.761869 21.181232,19.7604262 21.1534252,19.7584836 21.1398578,19.7578424 21.126714,19.7576972 21.1141432,19.7582551 21.1022952,19.7597231 21.1022952,19.7597231 20.9851605,19.7591757 20.8679373,19.7592922 20.6333989,19.7602179 20.51617,19.7603777 20.3990256,19.7599027 20.2820087,19.758468 20.1651627,19.7557491 20.1651627,19.7557491 20.1529734,19.7435288 20.1415335,19.7308426 20.1307599,19.7177421 20.1205694,19.7042793 20.1016054,19.6764738 20.0839762,19.6478403 20.0500619,19.589747 20.0324464,19.561116 20.0135052,19.5333145 20.0135052,19.5333145 19.9973336,19.5324693 19.9801484,19.5317693 19.9620969,19.5312059 19.9433264,19.5307707 19.9042177,19.53025 19.8640002,19.5301383 19.8238522,19.5303668 19.7849519,19.5308668 19.7663378,19.531197 19.7484775,19.5315693 19.7315181,19.531975 19.715607,19.5324056 19.715607,19.5324056 19.7031853,19.5419135 19.6913352,19.5524737 19.6799068,19.5638313 19.6687497,19.5757313 19.646649,19.6001392 19.6238315,19.6236579 19.6117786,19.6344466 19.5990959,19.6442481 19.5856333,19.6528077 19.5712406,19.6598704 19.5557675,19.6651813 19.547579,19.6671002 19.539064,19.6684855 19.5302039,19.6693054 19.5209798,19.669528 19.511373,19.6691215 19.5013648,19.6680539 19.5013648,19.6680539 18.6836864,19.6681625 18.2748541,19.6680949 17.8660703,19.667184 17.8660703,19.667184 17.8541995,19.6608789 17.8427065,19.6537156 17.8315644,19.6458142 17.8207469,19.6372951 17.7999791,19.6188847 17.7801903,19.5994468 17.761168,19.5799437 17.7426995,19.5613375 17.7245722,19.5445905 17.71557,19.537215 17.7065734,19.5306651 17.7065734,19.5306651 17.6700768,19.5310321 17.632397,19.5309541 17.555767,19.5303326 17.5179563,19.5302238 17.4812414,19.5305396 17.4461923,19.5314974 17.4294704,19.532285 17.4133785,19.5333145 17.4133785,19.5333145 17.3942463,19.5610415 17.3766057,19.5897359 17.3428925,19.6481469 17.3253664,19.6769237 17.3064248,19.7047882 17.2961961,19.7182315 17.2853411,19.7312704 17.2737688,19.7438463 17.2613885,19.7559004 17.2613885,19.7559004 17.1268384,19.7585337 16.992073,19.7599181 16.8571471,19.7603702 16.722115,19.7602065 16.4519508,19.7592977 16.3169278,19.7591856 16.1820169,19.7597237 16.1820169,19.7597237 16.1743387,19.7585412 16.1673958,19.7569206 16.1611539,19.7548841 16.1555784,19.7524537 16.1506351,19.7496516 16.1462894,19.7464999 16.1425069,19.7430209 16.1392531,19.7392365 16.1341943,19.7308406 16.1308375,19.7214893 16.1289071,19.7113597 16.1281279,19.700629 16.1282242,19.6894743 16.1289206,19.6780728 16.1310122,19.6552375 16.1318564,19.644158 16.132199,19.6335402 16.1317645,19.6235612 16.1302774,19.614398 16.1302774,19.614398 16.1304834,19.1026572 16.1300715,18.5908844 16.1301289,18.0791359 16.1317431,17.5674681 A0.1,0.1 180.308544 0,1 16.1920562,17.4762185z" transform="matrix(1,0,0,-1,0,83.82)" fill="rgb(255,255,255)" stroke="rgb(0,0,0)" stroke-width="0.0010cm" stroke-linecap="round" stroke-linejoin="round" shaper:cutDepth="0" /></svg>