<?xml version="1.0" encoding="utf-8"?>
<!-- Generator: Fusion 360, Shaper Origin Export Add-In, Version 1.6.3  -->
<svg xmlns="http://www.w3.org/2000/svg" xmlns:xlink="http://www.w3.org/1999/xlink" xmlns:shaper="http://www.shapertools.com/namespaces/shaper" shaper:fusionaddin="version:1.6.3" width="37.253cm" height="83.82cm" version="1.1" x="0cm" y="0cm" viewBox="0 0 37.253 83.82" enable-background="new 0 0 37.253 83.82" xml:space="preserve"><path d="M0,82.32 L0,3 A3,3 180 0,1 3,-0 L34.253,-0 A3,3 270 0,1 37.253,3 L37.253,50 A6.0406785,6.0406785 0 0,1 32.5963,55.88 A29.7464588,29.7464588 266.617541 0,0 4.76671,82.4762404 A1.5,1.5 5.9787864 0,1 3.2748692,83.82 L1.5,83.82 A1.5,1.5 90 0,1 -0,82.32z" transform="matrix(1,0,0,-1,0,83.82)" fill="rgb(0,0,0)" shaper:cutDepth="0" stroke-linecap="round" stroke-linejoin="round" /><path d="M15.937655,17.5606361 A0.105,0.105 180.308544 0,1 16.0009838,17.464824 L16.0009838,17.464824 16.0180426,17.4640417 16.0358037,17.4643772 16.0722202,17.4667238 16.0902693,17.4678962 16.1078082,17.4685089 16.1245337,17.4681425 16.1401427,17.4663777 16.1401427,17.4663777 16.263087,17.4669384 16.3861485,17.4668208 16.632395,17.4658738 16.7554657,17.4657057 16.8784253,17.4661822 17.0012167,17.4676341 17.1237827,17.4703921 17.1237827,17.4703921 17.1366582,17.4831278 17.148729,17.4963835 17.1600848,17.5101011 17.170815,17.5242229 17.1907568,17.5534468 17.2092707,17.5835915 17.2448798,17.6447893 17.2634075,17.6749151 17.2833722,17.7041073 17.2833722,17.7041073 17.3003525,17.7049949 17.3183969,17.7057299 17.3373509,17.7063213 17.3570599,17.7067784 17.3981241,17.7073251 17.4403524,17.7074424 17.4825078,17.7072024 17.5233532,17.7066774 17.5428981,17.7063307 17.5616515,17.7059398 17.5794589,17.7055138 17.5961657,17.7050617 17.5961657,17.7050617 17.6072058,17.6963658 17.6177692,17.6870643 17.6378629,17.6671396 17.6766962,17.6254738 17.6970232,17.6057152 17.7077615,17.5965382 17.7190154,17.5879945 17.730884,17.5802081 17.7434666,17.5733028 17.7568623,17.5674027 17.7711704,17.5626316 17.7711704,17.5626316 18.2128791,17.5628641 18.6546872,17.5623652 19.0964052,17.5625308 19.3171711,17.5632991 19.5378433,17.5647571 19.5378433,17.5647571 19.5504674,17.5709315 19.5626558,17.5781106 19.574441,17.5861565 19.5858551,17.5949314 19.6076996,17.6141164 19.628448,17.6345624 19.6483587,17.655166 19.6676902,17.674824 19.6772197,17.6839536 19.6867013,17.6924332 19.6961673,17.7001248 19.7056502,17.7068904 19.7056502,17.7068904 19.7439715,17.7065051 19.7835352,17.706587 19.8639966,17.7072396 19.9036979,17.7073538 19.9422484,17.7070222 19.9790501,17.7060165 19.9966081,17.7051896 20.0135045,17.7041086 20.0135045,17.7041086 20.0335179,17.6749935 20.052009,17.6449278 20.087407,17.5838001 20.1058052,17.5536662 20.1256638,17.5244376 20.1363737,17.5103078 20.1477284,17.4965783 20.1598211,17.4833071 20.1727448,17.4705523 20.1727448,17.4705523 20.3127131,17.4676808 20.4528623,17.4661706 20.5931467,17.4656766 20.7335204,17.465854 21.0143521,17.4668433 21.1547184,17.4669655 21.2949905,17.4663795 21.2949905,17.4663795 21.307323,17.4659353 21.3193111,17.4675423 21.3305397,17.4710112 21.3405936,17.4761524 21.3490579,17.4827768 21.3525642,17.4865859 21.3555174,17.4906948 21.3578657,17.4950798 21.3595571,17.4997173 21.3605398,17.5045834 21.3607618,17.5096547 21.3607618,17.5096547 21.3605544,18.0899527 21.3609991,18.6702845 21.3608512,19.2505856 21.3601663,19.5407045 21.3588665,19.8307914 21.3588665,19.8307914 21.3553928,19.836081 21.3515394,19.8408216 21.3473257,19.8450403 21.3427716,19.8487643 21.3327202,19.854837 21.3215424,19.859257 21.3093952,19.8622416 21.2964358,19.8640083 21.2828214,19.8647743 21.2687089,19.864757 21.2396184,19.8632421 21.2104213,19.8612024 21.1961755,19.8605291 21.1823744,19.8603767 21.1691752,19.8609625 21.1567348,19.8625039 21.1567348,19.8625039 21.0337433,19.8619291 20.910659,19.8620514 20.6643937,19.8630234 20.5413033,19.8631912 20.4183016,19.8626924 20.2954339,19.861186 20.1727456,19.8583311 20.1727456,19.8583311 20.1599468,19.8454998 20.1479349,19.8321793 20.1366227,19.8184238 20.1259227,19.8042879 20.1060105,19.7750921 20.0874998,19.7450269 20.0518898,19.684029 20.0333935,19.6539664 20.0135053,19.6247748 20.0135053,19.6247748 19.996525,19.6238873 19.9784806,19.6231523 19.9595265,19.6225608 19.9398175,19.6221038 19.8987533,19.621557 19.856525,19.6214398 19.8143696,19.6216798 19.7735243,19.6222047 19.7539795,19.6225515 19.7352261,19.6229423 19.7174188,19.6233683 19.7007122,19.6238204 19.7007122,19.6238204 19.6876693,19.6338037 19.6752268,19.6448919 19.6632269,19.6568174 19.651512,19.6693125 19.6283062,19.6949407 19.6165,19.7075386 19.6043479,19.7196354 19.5916923,19.7309635 19.5783755,19.7412551 19.5642397,19.7502427 19.5491274,19.7576585 19.5328807,19.763235 19.5242827,19.7652498 19.515342,19.7667043 19.5060389,19.7675652 19.4963536,19.767799 19.4862665,19.7673721 19.4757578,19.7662512 19.4757578,19.7662512 18.6171954,19.7663652 18.1879216,19.7662942 17.7586986,19.7653378 17.7586986,19.7653378 17.7462343,19.7587175 17.7341666,19.7511959 17.7224674,19.7428995 17.711109,19.7339544 17.6893028,19.7146235 17.6685246,19.6942137 17.6485512,19.6737354 17.6291593,19.6541989 17.6196116,19.6450996 17.6101256,19.6366146 17.6006733,19.6288703 17.5912269,19.621993 17.5912269,19.621993 17.5529054,19.6223783 17.5133417,19.6222964 17.4328801,19.6216438 17.3931789,19.6215296 17.3546283,19.6218612 17.3178267,19.6228669 17.3002686,19.6236938 17.2833722,19.6247748 17.2833722,19.6247748 17.2632834,19.6538882 17.2447608,19.6840172 17.2093619,19.7453488 17.1909595,19.7755645 17.1710708,19.8048222 17.1603307,19.8189376 17.1489329,19.8326285 17.136782,19.8458332 17.1237827,19.85849 17.1237827,19.85849 16.982505,19.8612549 16.8410015,19.8627085 16.6993292,19.8631833 16.5575455,19.8630114 16.2738731,19.8620572 16.132099,19.8619395 15.9904425,19.8625045 15.9904425,19.8625045 15.9823804,19.8612629 15.9750904,19.8595612 15.9685363,19.8574228 15.9626821,19.8548709 15.9574916,19.8519287 15.9529286,19.8486195 15.948957,19.8449665 15.9455406,19.8409929 15.9402288,19.8321772 15.9367041,19.8223583 15.9346773,19.8117223 15.933859,19.8004551 15.9339602,19.7887426 15.9346914,19.776771 15.9368876,19.7527939 15.937774,19.7411605 15.9381337,19.7300118 15.9376775,19.7195338 15.936116,19.7099125 15.936116,19.7099125 15.9363324,19.1725846 15.9358998,18.6352232 15.9359601,18.0978873 15.937655,17.5606361z" transform="matrix(1,0,0,-1,0,83.82)" fill="rgb(0,0,0)" shaper:cutDepth="0" stroke-linecap="round" stroke-linejoin="round" /><path d="M16.0009838,17.464824 L16.0009838,17.464824 16.0180426,17.4640417 16.0358037,17.4643772 16.0722202,17.4667238 16.0902693,17.4678962 16.1078082,17.4685089 16.1245337,17.4681425 16.1401427,17.4663777 16.1401427,17.4663777 16.263087,17.4669384 16.3861485,17.4668208 16.632395,17.4658738 16.7554657,17.4657057 16.8784253,17.4661822 17.0012167,17.4676341 17.1237827,17.4703921 17.1237827,17.4703921 17.1366582,17.4831278 17.148729,17.4963835 17.1600848,17.5101011 17.170815,17.5242229 17.1907568,17.5534468 17.2092707,17.5835915 17.2448798,17.6447893 17.2634075,17.6749151 17.2833722,17.7041073 17.2833722,17.7041073 17.3003525,17.7049949 17.3183969,17.7057299 17.3373509,17.7063213 17.3570599,17.7067784 17.3981241,17.7073251 17.4403524,17.7074424 17.4825078,17.7072024 17.5233532,17.7066774 17.5428981,17.7063307 17.5616515,17.7059398 17.5794589,17.7055138 17.5961657,17.7050617 17.5961657,17.7050617 17.6072058,17.6963658 17.6177692,17.6870643 17.6378629,17.6671396 17.6766962,17.6254738 17.6970232,17.6057152 17.7077615,17.5965382 17.7190154,17.5879945 17.730884,17.5802081 17.7434666,17.5733028 17.7568623,17.5674027 17.7711704,17.5626316 17.7711704,17.5626316 18.2128791,17.5628641 18.6546872,17.5623652 19.0964052,17.5625308 19.3171711,17.5632991 19.5378433,17.5647571 19.5378433,17.5647571 19.5504674,17.5709315 19.5626558,17.5781106 19.574441,17.5861565 19.5858551,17.5949314 19.6076996,17.6141164 19.628448,17.6345624 19.6483587,17.655166 19.6676902,17.674824 19.6772197,17.6839536 19.6867013,17.6924332 19.6961673,17.7001248 19.7056502,17.7068904 19.7056502,17.7068904 19.7439715,17.7065051 19.7835352,17.706587 19.8639966,17.7072396 19.9036979,17.7073538 19.9422484,17.7070222 19.9790501,17.7060165 19.9966081,17.7051896 20.0135045,17.7041086 20.0135045,17.7041086 20.0335179,17.6749935 20.052009,17.6449278 20.087407,17.5838001 20.1058052,17.5536662 20.1256638,17.5244376 20.1363737,17.5103078 20.1477284,17.4965783 20.1598211,17.4833071 20.1727448,17.4705523 20.1727448,17.4705523 20.3127131,17.4676808 20.4528623,17.4661706 20.5931467,17.4656766 20.7335204,17.465854 21.0143521,17.4668433 21.1547184,17.4669655 21.2949905,17.4663795 21.2949905,17.4663795 21.307323,17.4659353 21.3193111,17.4675423 21.3305397,17.4710112 21.3405936,17.4761524 21.3490579,17.4827768 21.3525642,17.4865859 21.3555174,17.4906948 21.3578657,17.4950798 21.3595571,17.4997173 21.3605398,17.5045834 21.3607618,17.5096547 21.3607618,17.5096547 21.3605544,18.0899527 21.3609991,18.6702845 21.3608512,19.2505856 21.3601663,19.5407045 21.3588665,19.8307914 21.3588665,19.8307914 21.3553928,19.836081 21.3515394,19.8408216 21.3473257,19.8450403 21.3427716,19.8487643 21.3327202,19.854837 21.3215424,19.859257 21.3093952,19.8622416 21.2964358,19.8640083 21.2828214,19.8647743 21.2687089,19.864757 21.2396184,19.8632421 21.2104213,19.8612024 21.1961755,19.8605291 21.1823744,19.8603767 21.1691752,19.8609625 21.1567348,19.8625039 21.1567348,19.8625039 21.0337433,19.8619291 20.910659,19.8620514 20.6643937,19.8630234 20.5413033,19.8631912 20.4183016,19.8626924 20.2954339,19.861186 20.1727456,19.8583311 20.1727456,19.8583311 20.1599468,19.8454998 20.1479349,19.8321793 20.1366227,19.8184238 20.1259227,19.8042879 20.1060105,19.7750921 20.0874998,19.7450269 20.0518898,19.684029 20.0333935,19.6539664 20.0135053,19.6247748 20.0135053,19.6247748 19.996525,19.6238873 19.9784806,19.6231523 19.9595265,19.6225608 19.9398175,19.6221038 19.8987533,19.621557 19.856525,19.6214398 19.8143696,19.6216798 19.7735243,19.6222047 19.7539795,19.6225515 19.7352261,19.6229423 19.7174188,19.6233683 19.7007122,19.6238204 19.7007122,19.6238204 19.6876693,19.6338037 19.6752268,19.6448919 19.6632269,19.6568174 19.651512,19.6693125 19.6283062,19.6949407 19.6165,19.7075386 19.6043479,19.7196354 19.5916923,19.7309635 19.5783755,19.7412551 19.5642397,19.7502427 19.5491274,19.7576585 19.5328807,19.763235 19.5242827,19.7652498 19.515342,19.7667043 19.5060389,19.7675652 19.4963536,19.767799 19.4862665,19.7673721 19.4757578,19.7662512 19.4757578,19.7662512 18.6171954,19.7663652 18.1879216,19.7662942 17.7586986,19.7653378 17.7586986,19.7653378 17.7462343,19.7587175 17.7341666,19.7511959 17.7224674,19.7428995 17.711109,19.7339544 17.6893028,19.7146235 17.6685246,19.6942137 17.6485512,19.6737354 17.6291593,19.6541989 17.6196116,19.6450996 17.6101256,19.6366146 17.6006733,19.6288703 17.5912269,19.621993 17.5912269,19.621993 17.5529054,19.6223783 17.5133417,19.6222964 17.4328801,19.6216438 17.3931789,19.6215296 17.3546283,19.6218612 17.3178267,19.6228669 17.3002686,19.6236938 17.2833722,19.6247748 17.2833722,19.6247748 17.2632834,19.6538882 17.2447608,19.6840172 17.2093619,19.7453488 17.1909595,19.7755645 17.1710708,19.8048222 17.1603307,19.8189376 17.1489329,19.8326285 17.136782,19.8458332 17.1237827,19.85849 17.1237827,19.85849 16.982505,19.8612549 16.8410015,19.8627085 16.6993292,19.8631833 16.5575455,19.8630114 16.2738731,19.8620572 16.132099,19.8619395 15.9904425,19.8625045 15.9904425,19.8625045 15.9823804,19.8612629 15.9750904,19.8595612 15.9685363,19.8574228 15.9626821,19.8548709 15.9574916,19.8519287 15.9529286,19.8486195 15.948957,19.8449665 15.9455406,19.8409929 15.9402288,19.8321772 15.9367041,19.8223583 15.9346773,19.8117223 15.933859,19.8004551 15.9339602,19.7887426 15.9346914,19.776771 15.9368876,19.7527939 15.937774,19.7411605 15.9381337,19.7300118 15.9376775,19.7195338 15.936116,19.7099125 15.936116,19.7099125 15.9363324,19.1725846 15.9358998,18.6352232 15.9359601,18.0978873 15.937655,17.5606361 A0.105,0.105 180.308544 0,1 16.0009838,17.464824z" transform="matrix(1,0,0,-1,0,83.82)" fill="rgb(255,255,255)" stroke="rgb(0,0,0)" stroke-width="0.0010cm" stroke-linecap="round" stroke-linejoin="round" shaper:cutDepth="0" /></svg>