<?xml version="1.0" encoding="utf-8"?>
<!-- Generator: Fusion 360, Shaper Origin Export Add-In, Version 1.6.3  -->
<svg xmlns="http://www.w3.org/2000/svg" xmlns:xlink="http://www.w3.org/1999/xlink" xmlns:shaper="http://www.shapertools.com/namespaces/shaper" shaper:fusionaddin="version:1.6.3" width="37.253cm" height="83.82cm" version="1.1" x="0cm" y="0cm" viewBox="0 0 37.253 83.82" enable-background="new 0 0 37.253 83.82" xml:space="preserve"><path d="M0,82.32 L0,3 A3,3 180 0,1 3,-0 L34.253,-0 A3,3 270 0,1 37.253,3 L37.253,50 A6.0406785,6.0406785 0 0,1 32.5963,55.88 A29.7464588,29.7464588 266.617541 0,0 4.76671,82.4762404 A1.5,1.5 5.9787864 0,1 3.2748692,83.82 L1.5,83.82 A1.5,1.5 90 0,1 -0,82.32z" transform="matrix(1,0,0,-1,0,83.82)" fill="rgb(0,0,0)" shaper:cutDepth="0" stroke-linecap="round" stroke-linejoin="round" /><path d="M15.6600528,17.5427085 A0.1091254,0.1091254 180.308544 0,1 15.7258697,17.4431319 L15.7258697,17.4431319 15.7435988,17.4423189 15.7620577,17.4426675 15.799905,17.4451063 15.8186633,17.4463248 15.8368913,17.4469616 15.8542739,17.4465808 15.8704962,17.4447466 15.8704962,17.4447466 15.9982709,17.4453294 16.1261676,17.4452072 16.3820891,17.4442229 16.5099953,17.4440482 16.6377859,17.4445435 16.7654017,17.4460524 16.8927834,17.4489187 16.8927834,17.4489187 16.9061647,17.4621548 16.9187098,17.4759313 16.9305118,17.4901879 16.9416636,17.5048645 16.9623889,17.5352366 16.9816302,17.5665658 17.0186384,17.630168 17.037894,17.6614774 17.0586432,17.6918166 17.0586432,17.6918166 17.0762906,17.692739 17.095044,17.6935029 17.1147427,17.6941176 17.135226,17.6945926 17.1779036,17.6951608 17.2217911,17.6952827 17.2656028,17.6950333 17.308053,17.6944877 17.3283658,17.6941274 17.3478561,17.6937211 17.3663632,17.6932784 17.3837263,17.6928085 17.3837263,17.6928085 17.3952002,17.683771 17.4061786,17.674104 17.4270618,17.6533965 17.4674209,17.6100937 17.4885465,17.5895587 17.4997068,17.5800211 17.5114028,17.5711417 17.5237377,17.5630494 17.5368146,17.5558728 17.5507367,17.5497409 17.565607,17.5447823 17.565607,17.5447823 18.0246704,17.545024 18.4838372,17.5445054 18.9429102,17.5446776 19.17235,17.5454761 19.4016925,17.5469913 19.4016925,17.5469913 19.4148125,17.5534083 19.4274798,17.5608695 19.439728,17.5692316 19.4515906,17.5783512 19.4742934,17.59829 19.4958569,17.6195393 19.5165499,17.6409524 19.5366411,17.6613828 19.5465449,17.6708711 19.556399,17.6796839 19.566237,17.6876776 19.5760925,17.6947091 19.5760925,17.6947091 19.6159194,17.6943086 19.6570376,17.6943937 19.7406603,17.695072 19.7819214,17.6951907 19.8219866,17.694846 19.8602342,17.6938009 19.8784821,17.6929414 19.8960424,17.6918179 19.8960424,17.6918179 19.9168421,17.6615589 19.9360597,17.6303119 19.9728484,17.5667825 19.9919695,17.5354647 20.0126084,17.5050877 20.0237391,17.4904027 20.0355399,17.4761338 20.0481077,17.4623412 20.0615392,17.4490852 20.0615392,17.4490852 20.2070068,17.446101 20.3526626,17.4445313 20.4984587,17.4440179 20.6443477,17.4442023 20.9362132,17.4452306 21.0820945,17.4453575 21.2278779,17.4447485 21.2278779,17.4447485 21.240695,17.4442869 21.2531541,17.445957 21.2648238,17.4495621 21.2752728,17.4549054 21.2840697,17.46179 21.2877137,17.4657488 21.290783,17.4700192 21.2932235,17.4745765 21.2949813,17.4793961 21.2960026,17.4844535 21.2962334,17.489724 21.2962334,17.489724 21.2960179,18.0928218 21.29648,18.6959549 21.2963263,19.2990561 21.2956145,19.6005737 21.2942636,19.9020581 21.2942636,19.9020581 21.2906535,19.9075555 21.2866486,19.9124824 21.2822694,19.9168668 21.2775363,19.9207372 21.26709,19.9270485 21.255473,19.9316421 21.2428486,19.9347441 21.2293801,19.9365801 21.2152307,19.9373762 21.2005637,19.9373583 21.1703303,19.9357838 21.139986,19.933664 21.1251805,19.9329642 21.1108372,19.9328058 21.0971193,19.9334146 21.0841902,19.9350166 21.0841902,19.9350166 20.9563663,19.9344192 20.828446,19.9345463 20.572505,19.9355565 20.4445784,19.9357309 20.3167439,19.9352125 20.1890488,19.9336469 20.06154,19.9306798 20.06154,19.9306798 20.0482384,19.9173444 20.0357546,19.9035005 20.0239978,19.8892046 20.0128775,19.8745133 19.9921829,19.8441704 19.9729449,19.812924 19.9359358,19.7495294 19.9167128,19.7182856 19.8960432,19.6879472 19.8960432,19.6879472 19.8783958,19.6870248 19.8596423,19.6862609 19.8399436,19.6856461 19.8194602,19.6851712 19.7767826,19.6846029 19.7328951,19.6844811 19.6890835,19.6847305 19.6466333,19.6852761 19.6263206,19.6856364 19.6068304,19.6860427 19.5883235,19.6864854 19.5709604,19.6869553 19.5709604,19.6869553 19.5574051,19.6973308 19.5444737,19.7088547 19.5320023,19.7212487 19.5198271,19.7342347 19.4957096,19.7608699 19.4834395,19.7739627 19.47081,19.7865348 19.4576572,19.7983079 19.4438171,19.809004 19.429126,19.8183447 19.4134199,19.8260519 19.4051349,19.829206 19.3965348,19.8318474 19.387599,19.8339414 19.378307,19.8354531 19.3686384,19.8363478 19.3585726,19.8365907 19.3480891,19.8361471 19.3371676,19.8349821 19.3371676,19.8349821 18.4448723,19.8351006 17.9987323,19.8350269 17.5526451,19.8340328 17.5526451,19.8340328 17.5396911,19.8271524 17.5271492,19.8193354 17.5149904,19.8107129 17.5031858,19.8014164 17.4805228,19.781326 17.4589282,19.7601143 17.43817,19.7388314 17.4180162,19.7185273 17.4080934,19.7090705 17.3982347,19.7002522 17.388411,19.6922036 17.3785934,19.685056 17.3785934,19.685056 17.3387663,19.6854565 17.2976481,19.6853714 17.2140252,19.6846931 17.1727641,19.6845744 17.1326989,19.6849191 17.0944513,19.6859642 17.0762035,19.6868236 17.0586432,19.6879472 17.0586432,19.6879472 17.0479511,19.7029118 17.0377651,19.7182044 17.0185147,19.7495172 16.981725,19.8132585 16.9625995,19.8446614 16.9419295,19.8750686 16.9307674,19.8897386 16.9189218,19.9039674 16.9062935,19.9176909 16.8927834,19.9308451 16.8927834,19.9308451 16.7459549,19.9337186 16.5988917,19.9352293 16.4516531,19.9357227 16.3042987,19.9355441 16.0094809,19.9345524 15.8621364,19.93443 15.7149143,19.9350172 15.7149143,19.9350172 15.7065354,19.9337268 15.6989589,19.9319583 15.6921474,19.9297359 15.6860632,19.9270837 15.6806687,19.9240259 15.6759264,19.9205867 15.6717988,19.9167901 15.6682481,19.9126605 15.6627277,19.9034984 15.6590645,19.8932937 15.656958,19.8822398 15.6561076,19.8705299 15.6562127,19.8583573 15.6569727,19.8459152 15.6592552,19.8209961 15.6601764,19.8089056 15.6605503,19.7973189 15.6600761,19.7864292 15.6584533,19.7764299 15.6584533,19.7764299 15.6586782,19.2179904 15.6582286,18.659516 15.6582912,18.1010682 15.6600528,17.5427085z" transform="matrix(1,0,0,-1,0,83.82)" fill="rgb(0,0,0)" shaper:cutDepth="0" stroke-linecap="round" stroke-linejoin="round" /><path d="M15.7258697,17.4431319 L15.7258697,17.4431319 15.7435988,17.4423189 15.7620577,17.4426675 15.799905,17.4451063 15.8186633,17.4463248 15.8368913,17.4469616 15.8542739,17.4465808 15.8704962,17.4447466 15.8704962,17.4447466 15.9982709,17.4453294 16.1261676,17.4452072 16.3820891,17.4442229 16.5099953,17.4440482 16.6377859,17.4445435 16.7654017,17.4460524 16.8927834,17.4489187 16.8927834,17.4489187 16.9061647,17.4621548 16.9187098,17.4759313 16.9305118,17.4901879 16.9416636,17.5048645 16.9623889,17.5352366 16.9816302,17.5665658 17.0186384,17.630168 17.037894,17.6614774 17.0586432,17.6918166 17.0586432,17.6918166 17.0762906,17.692739 17.095044,17.6935029 17.1147427,17.6941176 17.135226,17.6945926 17.1779036,17.6951608 17.2217911,17.6952827 17.2656028,17.6950333 17.308053,17.6944877 17.3283658,17.6941274 17.3478561,17.6937211 17.3663632,17.6932784 17.3837263,17.6928085 17.3837263,17.6928085 17.3952002,17.683771 17.4061786,17.674104 17.4270618,17.6533965 17.4674209,17.6100937 17.4885465,17.5895587 17.4997068,17.5800211 17.5114028,17.5711417 17.5237377,17.5630494 17.5368146,17.5558728 17.5507367,17.5497409 17.565607,17.5447823 17.565607,17.5447823 18.0246704,17.545024 18.4838372,17.5445054 18.9429102,17.5446776 19.17235,17.5454761 19.4016925,17.5469913 19.4016925,17.5469913 19.4148125,17.5534083 19.4274798,17.5608695 19.439728,17.5692316 19.4515906,17.5783512 19.4742934,17.59829 19.4958569,17.6195393 19.5165499,17.6409524 19.5366411,17.6613828 19.5465449,17.6708711 19.556399,17.6796839 19.566237,17.6876776 19.5760925,17.6947091 19.5760925,17.6947091 19.6159194,17.6943086 19.6570376,17.6943937 19.7406603,17.695072 19.7819214,17.6951907 19.8219866,17.694846 19.8602342,17.6938009 19.8784821,17.6929414 19.8960424,17.6918179 19.8960424,17.6918179 19.9168421,17.6615589 19.9360597,17.6303119 19.9728484,17.5667825 19.9919695,17.5354647 20.0126084,17.5050877 20.0237391,17.4904027 20.0355399,17.4761338 20.0481077,17.4623412 20.0615392,17.4490852 20.0615392,17.4490852 20.2070068,17.446101 20.3526626,17.4445313 20.4984587,17.4440179 20.6443477,17.4442023 20.9362132,17.4452306 21.0820945,17.4453575 21.2278779,17.4447485 21.2278779,17.4447485 21.240695,17.4442869 21.2531541,17.445957 21.2648238,17.4495621 21.2752728,17.4549054 21.2840697,17.46179 21.2877137,17.4657488 21.290783,17.4700192 21.2932235,17.4745765 21.2949813,17.4793961 21.2960026,17.4844535 21.2962334,17.489724 21.2962334,17.489724 21.2960179,18.0928218 21.29648,18.6959549 21.2963263,19.2990561 21.2956145,19.6005737 21.2942636,19.9020581 21.2942636,19.9020581 21.2906535,19.9075555 21.2866486,19.9124824 21.2822694,19.9168668 21.2775363,19.9207372 21.26709,19.9270485 21.255473,19.9316421 21.2428486,19.9347441 21.2293801,19.9365801 21.2152307,19.9373762 21.2005637,19.9373583 21.1703303,19.9357838 21.139986,19.933664 21.1251805,19.9329642 21.1108372,19.9328058 21.0971193,19.9334146 21.0841902,19.9350166 21.0841902,19.9350166 20.9563663,19.9344192 20.828446,19.9345463 20.572505,19.9355565 20.4445784,19.9357309 20.3167439,19.9352125 20.1890488,19.9336469 20.06154,19.9306798 20.06154,19.9306798 20.0482384,19.9173444 20.0357546,19.9035005 20.0239978,19.8892046 20.0128775,19.8745133 19.9921829,19.8441704 19.9729449,19.812924 19.9359358,19.7495294 19.9167128,19.7182856 19.8960432,19.6879472 19.8960432,19.6879472 19.8783958,19.6870248 19.8596423,19.6862609 19.8399436,19.6856461 19.8194602,19.6851712 19.7767826,19.6846029 19.7328951,19.6844811 19.6890835,19.6847305 19.6466333,19.6852761 19.6263206,19.6856364 19.6068304,19.6860427 19.5883235,19.6864854 19.5709604,19.6869553 19.5709604,19.6869553 19.5574051,19.6973308 19.5444737,19.7088547 19.5320023,19.7212487 19.5198271,19.7342347 19.4957096,19.7608699 19.4834395,19.7739627 19.47081,19.7865348 19.4576572,19.7983079 19.4438171,19.809004 19.429126,19.8183447 19.4134199,19.8260519 19.4051349,19.829206 19.3965348,19.8318474 19.387599,19.8339414 19.378307,19.8354531 19.3686384,19.8363478 19.3585726,19.8365907 19.3480891,19.8361471 19.3371676,19.8349821 19.3371676,19.8349821 18.4448723,19.8351006 17.9987323,19.8350269 17.5526451,19.8340328 17.5526451,19.8340328 17.5396911,19.8271524 17.5271492,19.8193354 17.5149904,19.8107129 17.5031858,19.8014164 17.4805228,19.781326 17.4589282,19.7601143 17.43817,19.7388314 17.4180162,19.7185273 17.4080934,19.7090705 17.3982347,19.7002522 17.388411,19.6922036 17.3785934,19.685056 17.3785934,19.685056 17.3387663,19.6854565 17.2976481,19.6853714 17.2140252,19.6846931 17.1727641,19.6845744 17.1326989,19.6849191 17.0944513,19.6859642 17.0762035,19.6868236 17.0586432,19.6879472 17.0586432,19.6879472 17.0479511,19.7029118 17.0377651,19.7182044 17.0185147,19.7495172 16.981725,19.8132585 16.9625995,19.8446614 16.9419295,19.8750686 16.9307674,19.8897386 16.9189218,19.9039674 16.9062935,19.9176909 16.8927834,19.9308451 16.8927834,19.9308451 16.7459549,19.9337186 16.5988917,19.9352293 16.4516531,19.9357227 16.3042987,19.9355441 16.0094809,19.9345524 15.8621364,19.93443 15.7149143,19.9350172 15.7149143,19.9350172 15.7065354,19.9337268 15.6989589,19.9319583 15.6921474,19.9297359 15.6860632,19.9270837 15.6806687,19.9240259 15.6759264,19.9205867 15.6717988,19.9167901 15.6682481,19.9126605 15.6627277,19.9034984 15.6590645,19.8932937 15.656958,19.8822398 15.6561076,19.8705299 15.6562127,19.8583573 15.6569727,19.8459152 15.6592552,19.8209961 15.6601764,19.8089056 15.6605503,19.7973189 15.6600761,19.7864292 15.6584533,19.7764299 15.6584533,19.7764299 15.6586782,19.2179904 15.6582286,18.659516 15.6582912,18.1010682 15.6600528,17.5427085 A0.1091254,0.1091254 180.308544 0,1 15.7258697,17.4431319z" transform="matrix(1,0,0,-1,0,83.82)" fill="rgb(255,255,255)" stroke="rgb(0,0,0)" stroke-width="0.0010cm" stroke-linecap="round" stroke-linejoin="round" shaper:cutDepth="0" /></svg>