<?xml version="1.0" encoding="utf-8"?>
<!-- Generator: Fusion 360, Shaper Origin Export Add-In, Version 1.6.3  -->
<svg xmlns="http://www.w3.org/2000/svg" xmlns:xlink="http://www.w3.org/1999/xlink" xmlns:shaper="http://www.shapertools.com/namespaces/shaper" shaper:fusionaddin="version:1.6.3" width="37.253cm" height="83.82cm" version="1.1" x="0cm" y="0cm" viewBox="0 0 37.253 83.82" enable-background="new 0 0 37.253 83.82" xml:space="preserve"><path d="M0,82.32 L0,3 A3,3 180 0,1 3,-0 L34.253,-0 A3,3 270 0,1 37.253,3 L37.253,50 A6.0406785,6.0406785 0 0,1 32.5963,55.88 A29.7464588,29.7464588 266.617541 0,0 4.76671,82.4762404 A1.5,1.5 5.9787864 0,1 3.2748692,83.82 L1.5,83.82 A1.5,1.5 90 0,1 -0,82.32z" transform="matrix(1,0,0,-1,0,83.82)" fill="rgb(0,0,0)" shaper:cutDepth="0" stroke-linecap="round" stroke-linejoin="round" /><path d="M15.679102,17.5426234 A0.1080342,0.1080342 180.308544 0,1 15.7442608,17.4440426 L15.7442608,17.4440426 15.7618126,17.4432377 15.7800869,17.4435829 15.8175558,17.4459973 15.8361265,17.4472036 15.8541722,17.447834 15.871381,17.447457 15.887441,17.4456412 15.887441,17.4456412 16.013938,17.4462181 16.1405557,17.4460972 16.393918,17.4451227 16.5205451,17.4449498 16.6470579,17.4454401 16.7733975,17.4469339 16.8995053,17.4497716 16.8995053,17.4497716 16.9127529,17.4628753 16.9251726,17.476514 16.9368565,17.4906281 16.9478967,17.5051579 16.9684148,17.5352263 16.9874638,17.5662422 17.0241019,17.6292084 17.0431649,17.6602047 17.0637065,17.6902405 17.0637065,17.6902405 17.0803238,17.6957116 17.0980389,17.701319 17.1166956,17.7070297 17.1361382,17.712811 17.1767571,17.724454 17.2186477,17.7359853 17.2605625,17.7471422 17.3012538,17.7576622 17.3207507,17.7626012 17.339474,17.7672824 17.3572675,17.7716731 17.3739754,17.7757404 17.3739754,17.7757404 17.3860392,17.7677689 17.3976662,17.7591355 17.4199738,17.7404255 17.463356,17.701027 17.4858886,17.6825071 17.4976842,17.6740164 17.5099543,17.6662192 17.5227898,17.6592511 17.5362819,17.6532476 17.5505219,17.6483442 17.5656007,17.6446765 17.5656007,17.6446765 18.0200735,17.6449158 18.4746486,17.6444024 18.9291309,17.6445728 19.1562763,17.6453634 19.3833253,17.6468635 19.3833253,17.6468635 19.3968228,17.6520487 19.4099648,17.6583032 19.4227718,17.6654826 19.4352647,17.6734427 19.4593902,17.6911279 19.4825063,17.7102046 19.5047782,17.7295188 19.526371,17.7479163 19.5369643,17.7564106 19.5474497,17.7642429 19.5578479,17.7712691 19.5681795,17.7773447 19.5681795,17.7773447 19.6060791,17.7664635 19.6453388,17.7557053 19.7253152,17.7343083 19.7647201,17.7235444 19.8028618,17.7126537 19.8390843,17.7015736 19.8562709,17.6959431 19.8727317,17.6902418 19.8727317,17.6902418 19.8933235,17.6602854 19.9123489,17.6293508 19.9487698,17.5664568 19.9676996,17.5354521 19.9881321,17.5053789 19.9991515,17.4908408 20.0108343,17.4767145 20.0232764,17.4630599 20.0365736,17.4499364 20.0365736,17.4499364 20.1805866,17.446982 20.3247857,17.4454281 20.4691239,17.4449198 20.613554,17.4451023 20.9025009,17.4461203 21.0469234,17.446246 21.1912489,17.4456431 21.1912489,17.4456431 21.2039379,17.4451861 21.2162724,17.4468395 21.2278254,17.4504085 21.2381699,17.4556984 21.2468788,17.4625141 21.2504864,17.4664334 21.2535249,17.470661 21.2559411,17.4751727 21.2576813,17.4799442 21.2586924,17.484951 21.2589209,17.4901688 21.2589209,17.4901688 21.2587075,18.0872357 21.259165,18.6843374 21.2590129,19.2814076 21.2583081,19.57991 21.2569708,19.8783796 21.2569708,19.8783796 21.2533968,19.883822 21.2494319,19.8886996 21.2450965,19.8930402 21.2404108,19.8968719 21.2300689,19.9031201 21.2185681,19.9076678 21.2060699,19.9107387 21.1927361,19.9125564 21.1787282,19.9133445 21.1642079,19.9133268 21.1342768,19.9117681 21.1042359,19.9096694 21.0895785,19.9089766 21.0753786,19.9088198 21.0617979,19.9094225 21.0489981,19.9110085 21.0489981,19.9110085 20.9224524,19.9104171 20.7958114,19.9105429 20.5424297,19.911543 20.4157824,19.9117157 20.2892263,19.9112024 20.1628081,19.9096525 20.0365744,19.9067151 20.0365744,19.9067151 20.0234058,19.893513 20.0110468,19.8798076 19.9994077,19.8656546 19.9883985,19.8511102 19.9679108,19.8210707 19.9488653,19.7901368 19.9122262,19.7273762 19.8931955,19.6964448 19.8727325,19.6664097 19.8727325,19.6664097 19.8560624,19.6611018 19.8382933,19.6556684 19.8195814,19.6501408 19.800083,19.6445504 19.759352,19.6333061 19.7173503,19.622186 19.6753282,19.6114405 19.6345358,19.6013199 19.6149914,19.5965723 19.5962233,19.5920748 19.5783877,19.5878588 19.5616408,19.5839556 19.5616408,19.5839556 19.5474597,19.5931477 19.5338055,19.6035214 19.5205381,19.6147896 19.5075173,19.6266649 19.4816541,19.6510881 19.4685313,19.6630615 19.455094,19.6744931 19.441202,19.6850957 19.4267151,19.6945821 19.411493,19.7026651 19.3953954,19.7090573 19.3782821,19.7134715 19.3693008,19.7148472 19.3600129,19.7156206 19.350401,19.715756 19.3404475,19.7152173 19.3301349,19.7139688 19.3194457,19.7119744 19.3194457,19.7119744 18.4360734,19.7120917 17.9943948,19.7120187 17.5527685,19.7110346 17.5527685,19.7110346 17.5393976,19.7053703 17.526352,19.6987466 17.5136146,19.6912955 17.5011681,19.683149 17.4770787,19.6652973 17.4539459,19.6462473 17.4316318,19.6270547 17.4099985,19.608775 17.399394,19.6003075 17.3889079,19.5924641 17.3785231,19.5853769 17.3682222,19.5791776 17.3682222,19.5791776 17.3303271,19.5900749 17.2910719,19.6008498 17.2111045,19.6222808 17.171704,19.6330614 17.133567,19.6439682 17.0973492,19.6550636 17.080165,19.6607015 17.0637065,19.6664097 17.0637065,19.6664097 17.0430372,19.6963644 17.0239794,19.7273641 16.9875576,19.790468 16.9686233,19.8215568 16.94816,19.85166 16.9371095,19.8661833 16.9253824,19.8802698 16.9128803,19.8938561 16.8995053,19.9068787 16.8995053,19.9068787 16.7541452,19.9097234 16.6085526,19.9112191 16.4627864,19.9117075 16.3169056,19.9115307 16.0250359,19.9105489 15.8791648,19.9104278 15.733415,19.9110091 15.733415,19.9110091 15.7251198,19.9097316 15.7176191,19.9079808 15.7108757,19.9057806 15.7048523,19.903155 15.6995118,19.9001277 15.694817,19.8967229 15.6907306,19.8929643 15.6872155,19.8888759 15.6817502,19.8798055 15.6781237,19.8697029 15.6760382,19.8587595 15.6751963,19.8471666 15.6753004,19.8351157 15.6760528,19.8227981 15.6783124,19.7981282 15.6792245,19.7861586 15.6795946,19.7746878 15.6791251,19.763907 15.6775186,19.7540077 15.6775186,19.7540077 15.6777412,19.2011526 15.6772961,18.6482629 15.6773581,18.0953996 15.679102,17.5426234z" transform="matrix(1,0,0,-1,0,83.82)" fill="rgb(0,0,0)" shaper:cutDepth="0" stroke-linecap="round" stroke-linejoin="round" /><path d="M15.7442608,17.4440426 L15.7442608,17.4440426 15.7618126,17.4432377 15.7800869,17.4435829 15.8175558,17.4459973 15.8361265,17.4472036 15.8541722,17.447834 15.871381,17.447457 15.887441,17.4456412 15.887441,17.4456412 16.013938,17.4462181 16.1405557,17.4460972 16.393918,17.4451227 16.5205451,17.4449498 16.6470579,17.4454401 16.7733975,17.4469339 16.8995053,17.4497716 16.8995053,17.4497716 16.9127529,17.4628753 16.9251726,17.476514 16.9368565,17.4906281 16.9478967,17.5051579 16.9684148,17.5352263 16.9874638,17.5662422 17.0241019,17.6292084 17.0431649,17.6602047 17.0637065,17.6902405 17.0637065,17.6902405 17.0803238,17.6957116 17.0980389,17.701319 17.1166956,17.7070297 17.1361382,17.712811 17.1767571,17.724454 17.2186477,17.7359853 17.2605625,17.7471422 17.3012538,17.7576622 17.3207507,17.7626012 17.339474,17.7672824 17.3572675,17.7716731 17.3739754,17.7757404 17.3739754,17.7757404 17.3860392,17.7677689 17.3976662,17.7591355 17.4199738,17.7404255 17.463356,17.701027 17.4858886,17.6825071 17.4976842,17.6740164 17.5099543,17.6662192 17.5227898,17.6592511 17.5362819,17.6532476 17.5505219,17.6483442 17.5656007,17.6446765 17.5656007,17.6446765 18.0200735,17.6449158 18.4746486,17.6444024 18.9291309,17.6445728 19.1562763,17.6453634 19.3833253,17.6468635 19.3833253,17.6468635 19.3968228,17.6520487 19.4099648,17.6583032 19.4227718,17.6654826 19.4352647,17.6734427 19.4593902,17.6911279 19.4825063,17.7102046 19.5047782,17.7295188 19.526371,17.7479163 19.5369643,17.7564106 19.5474497,17.7642429 19.5578479,17.7712691 19.5681795,17.7773447 19.5681795,17.7773447 19.6060791,17.7664635 19.6453388,17.7557053 19.7253152,17.7343083 19.7647201,17.7235444 19.8028618,17.7126537 19.8390843,17.7015736 19.8562709,17.6959431 19.8727317,17.6902418 19.8727317,17.6902418 19.8933235,17.6602854 19.9123489,17.6293508 19.9487698,17.5664568 19.9676996,17.5354521 19.9881321,17.5053789 19.9991515,17.4908408 20.0108343,17.4767145 20.0232764,17.4630599 20.0365736,17.4499364 20.0365736,17.4499364 20.1805866,17.446982 20.3247857,17.4454281 20.4691239,17.4449198 20.613554,17.4451023 20.9025009,17.4461203 21.0469234,17.446246 21.1912489,17.4456431 21.1912489,17.4456431 21.2039379,17.4451861 21.2162724,17.4468395 21.2278254,17.4504085 21.2381699,17.4556984 21.2468788,17.4625141 21.2504864,17.4664334 21.2535249,17.470661 21.2559411,17.4751727 21.2576813,17.4799442 21.2586924,17.484951 21.2589209,17.4901688 21.2589209,17.4901688 21.2587075,18.0872357 21.259165,18.6843374 21.2590129,19.2814076 21.2583081,19.57991 21.2569708,19.8783796 21.2569708,19.8783796 21.2533968,19.883822 21.2494319,19.8886996 21.2450965,19.8930402 21.2404108,19.8968719 21.2300689,19.9031201 21.2185681,19.9076678 21.2060699,19.9107387 21.1927361,19.9125564 21.1787282,19.9133445 21.1642079,19.9133268 21.1342768,19.9117681 21.1042359,19.9096694 21.0895785,19.9089766 21.0753786,19.9088198 21.0617979,19.9094225 21.0489981,19.9110085 21.0489981,19.9110085 20.9224524,19.9104171 20.7958114,19.9105429 20.5424297,19.911543 20.4157824,19.9117157 20.2892263,19.9112024 20.1628081,19.9096525 20.0365744,19.9067151 20.0365744,19.9067151 20.0234058,19.893513 20.0110468,19.8798076 19.9994077,19.8656546 19.9883985,19.8511102 19.9679108,19.8210707 19.9488653,19.7901368 19.9122262,19.7273762 19.8931955,19.6964448 19.8727325,19.6664097 19.8727325,19.6664097 19.8560624,19.6611018 19.8382933,19.6556684 19.8195814,19.6501408 19.800083,19.6445504 19.759352,19.6333061 19.7173503,19.622186 19.6753282,19.6114405 19.6345358,19.6013199 19.6149914,19.5965723 19.5962233,19.5920748 19.5783877,19.5878588 19.5616408,19.5839556 19.5616408,19.5839556 19.5474597,19.5931477 19.5338055,19.6035214 19.5205381,19.6147896 19.5075173,19.6266649 19.4816541,19.6510881 19.4685313,19.6630615 19.455094,19.6744931 19.441202,19.6850957 19.4267151,19.6945821 19.411493,19.7026651 19.3953954,19.7090573 19.3782821,19.7134715 19.3693008,19.7148472 19.3600129,19.7156206 19.350401,19.715756 19.3404475,19.7152173 19.3301349,19.7139688 19.3194457,19.7119744 19.3194457,19.7119744 18.4360734,19.7120917 17.9943948,19.7120187 17.5527685,19.7110346 17.5527685,19.7110346 17.5393976,19.7053703 17.526352,19.6987466 17.5136146,19.6912955 17.5011681,19.683149 17.4770787,19.6652973 17.4539459,19.6462473 17.4316318,19.6270547 17.4099985,19.608775 17.399394,19.6003075 17.3889079,19.5924641 17.3785231,19.5853769 17.3682222,19.5791776 17.3682222,19.5791776 17.3303271,19.5900749 17.2910719,19.6008498 17.2111045,19.6222808 17.171704,19.6330614 17.133567,19.6439682 17.0973492,19.6550636 17.080165,19.6607015 17.0637065,19.6664097 17.0637065,19.6664097 17.0430372,19.6963644 17.0239794,19.7273641 16.9875576,19.790468 16.9686233,19.8215568 16.94816,19.85166 16.9371095,19.8661833 16.9253824,19.8802698 16.9128803,19.8938561 16.8995053,19.9068787 16.8995053,19.9068787 16.7541452,19.9097234 16.6085526,19.9112191 16.4627864,19.9117075 16.3169056,19.9115307 16.0250359,19.9105489 15.8791648,19.9104278 15.733415,19.9110091 15.733415,19.9110091 15.7251198,19.9097316 15.7176191,19.9079808 15.7108757,19.9057806 15.7048523,19.903155 15.6995118,19.9001277 15.694817,19.8967229 15.6907306,19.8929643 15.6872155,19.8888759 15.6817502,19.8798055 15.6781237,19.8697029 15.6760382,19.8587595 15.6751963,19.8471666 15.6753004,19.8351157 15.6760528,19.8227981 15.6783124,19.7981282 15.6792245,19.7861586 15.6795946,19.7746878 15.6791251,19.763907 15.6775186,19.7540077 15.6775186,19.7540077 15.6777412,19.2011526 15.6772961,18.6482629 15.6773581,18.0953996 15.679102,17.5426234 A0.1080342,0.1080342 180.308544 0,1 15.7442608,17.4440426z" transform="matrix(1,0,0,-1,0,83.82)" fill="rgb(255,255,255)" stroke="rgb(0,0,0)" stroke-width="0.0010cm" stroke-linecap="round" stroke-linejoin="round" shaper:cutDepth="0" /></svg>