<?xml version="1.0" encoding="utf-8"?>
<!-- Generator: Fusion 360, Shaper Origin Export Add-In, Version 1.6.3  -->
<svg xmlns="http://www.w3.org/2000/svg" xmlns:xlink="http://www.w3.org/1999/xlink" xmlns:shaper="http://www.shapertools.com/namespaces/shaper" shaper:fusionaddin="version:1.6.3" width="37.253cm" height="83.82cm" version="1.1" x="0cm" y="0cm" viewBox="0 0 37.253 83.82" enable-background="new 0 0 37.253 83.82" xml:space="preserve"><path d="M0,82.32 L0,3 A3,3 180 0,1 3,-0 L34.253,-0 A3,3 270 0,1 37.253,3 L37.253,50 A6.0406785,6.0406785 0 0,1 32.5963,55.88 A29.7464588,29.7464588 266.617541 0,0 4.76671,82.4762404 A1.5,1.5 5.9787864 0,1 3.2748692,83.82 L1.5,83.82 A1.5,1.5 90 0,1 -0,82.32z" transform="matrix(1,0,0,-1,0,83.82)" fill="rgb(0,0,0)" shaper:cutDepth="0" stroke-linecap="round" stroke-linejoin="round" /><path d="M15.6600528,17.5427085 A0.1113525,0.1113525 180.308544 0,1 15.7272129,17.4410997 L15.7272129,17.4410997 15.7453038,17.4402701 15.7641394,17.4406259 15.8027591,17.4431145 15.8219002,17.4443578 15.8405002,17.4450076 15.8582376,17.444619 15.8747909,17.4427474 15.8747909,17.4427474 16.0051734,17.443342 16.1356801,17.4432174 16.3968245,17.442213 16.527341,17.4420347 16.6577397,17.4425401 16.7879599,17.4440798 16.9179411,17.4470047 16.9179411,17.4470047 16.9315956,17.4605109 16.9443967,17.4745685 16.9564395,17.4891161 16.9678189,17.5040922 16.9889672,17.5350841 17.0086012,17.5670527 17.0463647,17.6319529 17.0660133,17.6639013 17.0871858,17.6948597 17.0871858,17.6948597 17.1051934,17.6958009 17.1243295,17.6965804 17.1444303,17.6972076 17.1653316,17.6976923 17.2088802,17.6982721 17.2536633,17.6983965 17.2983691,17.698142 17.3416857,17.6975853 17.362413,17.6972175 17.382301,17.696803 17.4011858,17.6963512 17.4189033,17.6958718 17.4189033,17.6958718 17.4306113,17.6866498 17.4418138,17.6767855 17.4631233,17.6556554 17.5043059,17.6114689 17.5258627,17.5905148 17.5372507,17.5807826 17.5491854,17.571722 17.5617721,17.5634645 17.5751159,17.5561415 17.5893221,17.5498844 17.6044958,17.5448246 17.6044958,17.5448246 18.0729279,17.5450713 18.5414654,17.5445421 19.0099073,17.5447178 19.2440295,17.5455325 19.4780524,17.5470787 19.4780524,17.5470787 19.4914403,17.5536266 19.5043661,17.5612401 19.5168642,17.5697729 19.5289689,17.5790786 19.552135,17.5994243 19.5741387,17.6211072 19.595254,17.6429573 19.6157551,17.6638047 19.6258611,17.6734867 19.6359163,17.6824793 19.6459551,17.6906362 19.6560117,17.6978111 19.6560117,17.6978111 19.6966514,17.6974025 19.7386087,17.6974893 19.823938,17.6981815 19.8660412,17.6983025 19.9069241,17.6979509 19.9459522,17.6968844 19.9645725,17.6960074 19.9824911,17.694861 19.9824911,17.694861 20.0037153,17.6639845 20.0233251,17.6320997 20.0608647,17.5672739 20.080376,17.5353169 20.101436,17.5043199 20.1127939,17.4893353 20.1248356,17.4747751 20.1376598,17.4607011 20.1513655,17.4471746 20.1513655,17.4471746 20.2998018,17.4441294 20.4484301,17.4425277 20.5972017,17.4420039 20.746068,17.442192 21.04389,17.4432412 21.1927484,17.4433708 21.341507,17.4427493 21.341507,17.4427493 21.3545857,17.4422783 21.367299,17.4439825 21.3792069,17.4476612 21.3898691,17.4531135 21.3945956,17.456442 21.3988455,17.4601386 21.4025639,17.4641782 21.4056958,17.4685357 21.4081861,17.473186 21.4099799,17.478104 21.411022,17.4832646 21.4112575,17.4886427 21.4112575,17.4886427 21.4110376,18.1040486 21.4115091,18.7194906 21.4113523,19.3348999 21.4106259,19.6425709 21.4092475,19.9502081 21.4092475,19.9502081 21.4055637,19.9558177 21.4014771,19.9608451 21.3970085,19.9653191 21.3921788,19.9692684 21.3815194,19.9757085 21.3696653,19.9803959 21.3567832,19.9835611 21.3430398,19.9854346 21.3286016,19.986247 21.3136354,19.9862287 21.2827849,19.9846221 21.2518214,19.982459 21.2367137,19.9817449 21.2220777,19.9815833 21.2080799,19.9822045 21.1948868,19.9838392 21.1948868,19.9838392 21.0644543,19.9832297 20.9339235,19.9833593 20.6727591,19.9843901 20.5422218,19.9845681 20.4117785,19.9840391 20.2814773,19.9824416 20.1513663,19.979414 20.1513663,19.979414 20.1377932,19.9658064 20.1250546,19.9516799 20.1130579,19.9370923 20.1017106,19.9221012 20.0805937,19.891139 20.0609632,19.8592549 20.0231987,19.7945666 20.0035834,19.7626852 19.9824919,19.7317275 19.9824919,19.7317275 19.9644844,19.7307863 19.9453482,19.7300068 19.9252475,19.7293796 19.9043461,19.7288949 19.8607975,19.7283151 19.8160143,19.7281907 19.7713086,19.7284452 19.7279921,19.7290019 19.7072649,19.7293697 19.6873769,19.7297842 19.6684922,19.730236 19.6507749,19.7307154 19.6507749,19.7307154 19.6369429,19.7413027 19.6237476,19.7530617 19.6110217,19.7657087 19.598598,19.7789597 19.5739883,19.8061385 19.5614678,19.8194985 19.5485805,19.8323272 19.5351593,19.8443406 19.5210368,19.8552549 19.5060458,19.8647862 19.4900192,19.8726507 19.4815652,19.8758692 19.4727896,19.8785645 19.4636714,19.8807012 19.4541898,19.8822438 19.4443238,19.8831568 19.4340526,19.8834046 19.4233552,19.882952 19.4122107,19.8817632 19.4122107,19.8817632 18.5017054,19.8818842 18.0464604,19.8818089 17.5912695,19.8807946 17.5912695,19.8807946 17.5780511,19.8737737 17.5652532,19.8657971 17.5528463,19.8569987 17.5408007,19.8475125 17.5176753,19.8270121 17.49564,19.8053675 17.4744581,19.7836503 17.453893,19.7629318 17.4437677,19.753282 17.4337078,19.7442837 17.4236836,19.7360708 17.4136657,19.7287774 17.4136657,19.7287774 17.3730258,19.7291861 17.3310684,19.7290992 17.245739,19.7284071 17.2036358,19.728286 17.1627529,19.7286377 17.1237248,19.7297041 17.1051045,19.7305811 17.0871858,19.7317275 17.0871858,19.7317275 17.0762755,19.7469975 17.0658816,19.7626022 17.0462384,19.7945541 17.0086979,19.8595963 16.9891821,19.89164 16.9680902,19.9226678 16.9567003,19.9376372 16.944613,19.9521564 16.931727,19.96616 16.9179411,19.9795825 16.9179411,19.9795825 16.7681162,19.9825147 16.6180516,19.9840563 16.4678082,19.9845597 16.3174466,19.9843774 16.0166121,19.9833655 15.8662606,19.9832407 15.7160339,19.9838398 15.7160339,19.9838398 15.707484,19.9825231 15.6997529,19.9807185 15.6928024,19.9784508 15.686594,19.9757445 15.6810894,19.9726243 15.6762504,19.9691148 15.6720385,19.9652408 15.6684154,19.9610268 15.6627823,19.9516778 15.6590443,19.9412649 15.6568949,19.9299853 15.6560271,19.9180364 15.6561343,19.9056154 15.6569099,19.8929195 15.6592389,19.8674918 15.660179,19.8551546 15.6605604,19.8433314 15.6600766,19.8322195 15.6584207,19.8220161 15.6584207,19.8220161 15.6586501,19.2521798 15.6581914,18.682308 15.6582553,18.1124633 15.6600528,17.5427085z" transform="matrix(1,0,0,-1,0,83.82)" fill="rgb(0,0,0)" shaper:cutDepth="0" stroke-linecap="round" stroke-linejoin="round" /><path d="M15.7272129,17.4410997 L15.7272129,17.4410997 15.7453038,17.4402701 15.7641394,17.4406259 15.8027591,17.4431145 15.8219002,17.4443578 15.8405002,17.4450076 15.8582376,17.444619 15.8747909,17.4427474 15.8747909,17.4427474 16.0051734,17.443342 16.1356801,17.4432174 16.3968245,17.442213 16.527341,17.4420347 16.6577397,17.4425401 16.7879599,17.4440798 16.9179411,17.4470047 16.9179411,17.4470047 16.9315956,17.4605109 16.9443967,17.4745685 16.9564395,17.4891161 16.9678189,17.5040922 16.9889672,17.5350841 17.0086012,17.5670527 17.0463647,17.6319529 17.0660133,17.6639013 17.0871858,17.6948597 17.0871858,17.6948597 17.1051934,17.6958009 17.1243295,17.6965804 17.1444303,17.6972076 17.1653316,17.6976923 17.2088802,17.6982721 17.2536633,17.6983965 17.2983691,17.698142 17.3416857,17.6975853 17.362413,17.6972175 17.382301,17.696803 17.4011858,17.6963512 17.4189033,17.6958718 17.4189033,17.6958718 17.4306113,17.6866498 17.4418138,17.6767855 17.4631233,17.6556554 17.5043059,17.6114689 17.5258627,17.5905148 17.5372507,17.5807826 17.5491854,17.571722 17.5617721,17.5634645 17.5751159,17.5561415 17.5893221,17.5498844 17.6044958,17.5448246 17.6044958,17.5448246 18.0729279,17.5450713 18.5414654,17.5445421 19.0099073,17.5447178 19.2440295,17.5455325 19.4780524,17.5470787 19.4780524,17.5470787 19.4914403,17.5536266 19.5043661,17.5612401 19.5168642,17.5697729 19.5289689,17.5790786 19.552135,17.5994243 19.5741387,17.6211072 19.595254,17.6429573 19.6157551,17.6638047 19.6258611,17.6734867 19.6359163,17.6824793 19.6459551,17.6906362 19.6560117,17.6978111 19.6560117,17.6978111 19.6966514,17.6974025 19.7386087,17.6974893 19.823938,17.6981815 19.8660412,17.6983025 19.9069241,17.6979509 19.9459522,17.6968844 19.9645725,17.6960074 19.9824911,17.694861 19.9824911,17.694861 20.0037153,17.6639845 20.0233251,17.6320997 20.0608647,17.5672739 20.080376,17.5353169 20.101436,17.5043199 20.1127939,17.4893353 20.1248356,17.4747751 20.1376598,17.4607011 20.1513655,17.4471746 20.1513655,17.4471746 20.2998018,17.4441294 20.4484301,17.4425277 20.5972017,17.4420039 20.746068,17.442192 21.04389,17.4432412 21.1927484,17.4433708 21.341507,17.4427493 21.341507,17.4427493 21.3545857,17.4422783 21.367299,17.4439825 21.3792069,17.4476612 21.3898691,17.4531135 21.3945956,17.456442 21.3988455,17.4601386 21.4025639,17.4641782 21.4056958,17.4685357 21.4081861,17.473186 21.4099799,17.478104 21.411022,17.4832646 21.4112575,17.4886427 21.4112575,17.4886427 21.4110376,18.1040486 21.4115091,18.7194906 21.4113523,19.3348999 21.4106259,19.6425709 21.4092475,19.9502081 21.4092475,19.9502081 21.4055637,19.9558177 21.4014771,19.9608451 21.3970085,19.9653191 21.3921788,19.9692684 21.3815194,19.9757085 21.3696653,19.9803959 21.3567832,19.9835611 21.3430398,19.9854346 21.3286016,19.986247 21.3136354,19.9862287 21.2827849,19.9846221 21.2518214,19.982459 21.2367137,19.9817449 21.2220777,19.9815833 21.2080799,19.9822045 21.1948868,19.9838392 21.1948868,19.9838392 21.0644543,19.9832297 20.9339235,19.9833593 20.6727591,19.9843901 20.5422218,19.9845681 20.4117785,19.9840391 20.2814773,19.9824416 20.1513663,19.979414 20.1513663,19.979414 20.1377932,19.9658064 20.1250546,19.9516799 20.1130579,19.9370923 20.1017106,19.9221012 20.0805937,19.891139 20.0609632,19.8592549 20.0231987,19.7945666 20.0035834,19.7626852 19.9824919,19.7317275 19.9824919,19.7317275 19.9644844,19.7307863 19.9453482,19.7300068 19.9252475,19.7293796 19.9043461,19.7288949 19.8607975,19.7283151 19.8160143,19.7281907 19.7713086,19.7284452 19.7279921,19.7290019 19.7072649,19.7293697 19.6873769,19.7297842 19.6684922,19.730236 19.6507749,19.7307154 19.6507749,19.7307154 19.6369429,19.7413027 19.6237476,19.7530617 19.6110217,19.7657087 19.598598,19.7789597 19.5739883,19.8061385 19.5614678,19.8194985 19.5485805,19.8323272 19.5351593,19.8443406 19.5210368,19.8552549 19.5060458,19.8647862 19.4900192,19.8726507 19.4815652,19.8758692 19.4727896,19.8785645 19.4636714,19.8807012 19.4541898,19.8822438 19.4443238,19.8831568 19.4340526,19.8834046 19.4233552,19.882952 19.4122107,19.8817632 19.4122107,19.8817632 18.5017054,19.8818842 18.0464604,19.8818089 17.5912695,19.8807946 17.5912695,19.8807946 17.5780511,19.8737737 17.5652532,19.8657971 17.5528463,19.8569987 17.5408007,19.8475125 17.5176753,19.8270121 17.49564,19.8053675 17.4744581,19.7836503 17.453893,19.7629318 17.4437677,19.753282 17.4337078,19.7442837 17.4236836,19.7360708 17.4136657,19.7287774 17.4136657,19.7287774 17.3730258,19.7291861 17.3310684,19.7290992 17.245739,19.7284071 17.2036358,19.728286 17.1627529,19.7286377 17.1237248,19.7297041 17.1051045,19.7305811 17.0871858,19.7317275 17.0871858,19.7317275 17.0762755,19.7469975 17.0658816,19.7626022 17.0462384,19.7945541 17.0086979,19.8595963 16.9891821,19.89164 16.9680902,19.9226678 16.9567003,19.9376372 16.944613,19.9521564 16.931727,19.96616 16.9179411,19.9795825 16.9179411,19.9795825 16.7681162,19.9825147 16.6180516,19.9840563 16.4678082,19.9845597 16.3174466,19.9843774 16.0166121,19.9833655 15.8662606,19.9832407 15.7160339,19.9838398 15.7160339,19.9838398 15.707484,19.9825231 15.6997529,19.9807185 15.6928024,19.9784508 15.686594,19.9757445 15.6810894,19.9726243 15.6762504,19.9691148 15.6720385,19.9652408 15.6684154,19.9610268 15.6627823,19.9516778 15.6590443,19.9412649 15.6568949,19.9299853 15.6560271,19.9180364 15.6561343,19.9056154 15.6569099,19.8929195 15.6592389,19.8674918 15.660179,19.8551546 15.6605604,19.8433314 15.6600766,19.8322195 15.6584207,19.8220161 15.6584207,19.8220161 15.6586501,19.2521798 15.6581914,18.682308 15.6582553,18.1124633 15.6600528,17.5427085 A0.1113525,0.1113525 180.308544 0,1 15.7272129,17.4410997z" transform="matrix(1,0,0,-1,0,83.82)" fill="rgb(255,255,255)" stroke="rgb(0,0,0)" stroke-width="0.0010cm" stroke-linecap="round" stroke-linejoin="round" shaper:cutDepth="0" /></svg>